<svg id="Layer_1" data-name="Layer 1" xmlns="http://www.w3.org/2000/svg" xmlns:xlink="http://www.w3.org/1999/xlink" viewBox="0 0 2000 2000"><defs><style>.cls-1{fill:#f16e69;stroke:#000;stroke-miterlimit:10;stroke-width:15px;}.cls-2{font-size:350px;font-family:RocGrotesk-CompressedBold, Roc Grotesk;font-weight:700;}.cls-3{opacity:0.7;fill:url(#linear-gradient);}.cls-4{fill:#f7efed;}.cls-5{fill:#3d94b2;}.cls-6,.cls-9{fill:#fff;}.cls-10,.cls-12,.cls-6{opacity:0.5;}.cls-10,.cls-7{fill:#ffc67b;}.cls-8{fill:#286170;}.cls-11{fill:#151619;}.cls-12{fill:#704a1d;}</style><linearGradient id="linear-gradient" x1="1009.61" y1="1497.67" x2="991.57" y2="508.99" gradientUnits="userSpaceOnUse"><stop offset="0" stop-color="#f16e69"/><stop offset="1" stop-color="#f3d6df"/></linearGradient></defs><circle class="cls-1" cx="1000" cy="998" r="883"/><text class="cls-2" transform="translate(-625.96 -95.15) rotate(-25.32)">I</text><text class="cls-2" transform="translate(-570.35 -121.08) rotate(-20.13)"> </text><text class="cls-2" transform="matrix(0.98, -0.22, 0.22, 0.98, -532.32, -138)">V</text><text class="cls-2" transform="translate(-427.08 -162.02) rotate(-2.33)">O</text><text class="cls-2" transform="translate(-322.4 -166.08) rotate(6.36)">T</text><text class="cls-2" transform="translate(-238.54 -156.92) rotate(14.34)">E</text><text class="cls-2" transform="translate(-162.15 -139.25) rotate(23.54)">D</text><text class="cls-2" transform="matrix(0.85, 0.53, -0.53, 0.85, -60.19, -93.05)">!</text><path class="cls-3" d="M1870,909.75c-1.45.17-2.89.35-4.35.49-11.61,3.32-23.25,3-35.61,1.29,1.1-1.59,1.44-2.6,1.92-2.67,11.09-1.79,22.21-3.48,33.31-5.19l3.91-1.14c-1.12-9.67-2.28-18.44-3.34-25.94-1.87.86-4.32.51-7.41-1.44-.37-1.72-.89-3.71-1.18-5.73s-.08-4.29-.6-6.3c-1.61-6.14-6.41-10-12-10a12.85,12.85,0,0,0-12,10.11c-.93,4.8-.47,9.88-1.35,14.7-1.13,6.19-5.1,7.61-11.48,4.8-.71-4.52-1-9.4-2.31-14-1.61-5.92-6.91-9.2-12.83-8.78s-10.25,4.21-11.41,10.57c-1,5.25-1.4,10.59-2,15.56-56.53,4.54-123.29-40.6-142.66-95.31,8.09-7.69,8.09-7.69,4.4-17.31-6.65-.47-13.62-.86-20.57-1.55-1.13-.12-2.13-1.56-4.07-3.08.37-3.32.81-7.22,1.27-11.39l26.47-2.82c-.2-4.39-.35-7.62-.56-12-7.85-.26-14.81-.67-21.77-.69-34.58-.07-69.16,0-103.74-.11-4.68,0-9.35-1.09-14.65-1.76-.78-13.64-1.49-26.1-2.23-39.28,30.11-16.16,59.17-34.63,88.13-52.45.25-12.38,2.24-23.35-1.19-33.61l-77.65,16.59L1481,636.11c-.34-.91-.67-1.83-1-2.74,2.35-1.34,4.57-3.45,7.08-3.9,11.67-2.06,23.42-3.67,35.14-5.44,30.14-7.94,59.27-18.41,85.94-34.88,3.37-2.08,6.14-5.14,9.74-8.22-2.71-3.88-4.55-6.79-6.67-9.47s-4.52-5.11-6-6.76c-3,0-4.4-.08-5.78,0-2,.16-4,.45-6.54.74-1.18-2.76-1.91-5.48-3.38-7.71-3.89-5.89-8.61-8-14.11-6.64s-8.38,5.26-9.17,10.45c-.75,4.85-.52,9.85-1,14.76-.63,7-4.94,9.47-12.36,8.95-1.19-4.41-2-9.18-3.78-13.57a11.5,11.5,0,0,0-13.75-7.11c-5.35,1.23-8.7,4.66-9.3,10.13-.53,4.89-.3,9.87-.7,14.79-.55,6.64-1.48,7.14-11.67,7.23-.91-4.66-1.39-9.56-2.89-14.12-1.9-5.79-7.92-9.19-13.26-8s-9.1,4.19-9.92,9.69c-.73,4.87-.25,9.93-1.14,14.75-1.11,6.05-5.24,7.78-12.17,5.45-.68-4.13-1.22-8.86-2.25-13.47-1.47-6.53-5.81-10-11.75-10s-10,3.62-12.11,9.92c-1.93,5.78,1.08,13.06-5.29,17.45-57.41.78-115.77-39.21-140-95.92,4.79-4.58,11.69-8.49,5-17.11-6.54-.65-13.5-1.25-20.42-2.14-1.14-.15-2.11-1.61-4.13-3.25.53-3.21,1.17-7,1.77-10.66L1309,476.7c.59-2.9,1.43-5,1.3-6.95s-1.26-3.69-2.42-6.79c-8.36,0-16.76,0-25.17,0-9.07-.05-18.15-.17-27.36-.27-1.76-8-3.2-14.51-4.6-20.85-19.22-3.32-37.74,1.37-55.94-3.06-4.88-14.53.35-29.71-3.66-44l-24.79-2.67c-.32-6.76-.54-13-.93-19.19-.42-6.79,1.4-13.91-1.76-20-20-3-52.22-2.82-69.43.54-.08,7.38-.35,15.06-.2,22.74.17,8.28-1,16.73,1.81,26.07,15.21,1.06,29.72,1.34,45.77-.44,1.48-10.69,2.78-20.86-.65-31.79-4.39-.39-8.55-1.2-12.67-1-5.28.23-14.34-2-14.73,3.55-.67,9.82,9.66,3.87,14.57,6.43a24.44,24.44,0,0,1,3.19,2.35c.38,10.08-.23,11.42-6.73,11.58-6.19.14-12.41-.38-18.84-.61a54,54,0,0,1-.48-30.6c16.62-1.39,32.43-2.54,48.61.87a242.57,242.57,0,0,1,0,45.65c-12.26,2.17-23.47,1.55-34.55,1.29-10.92-.26-22.25,2.18-33.4-2.73-.29-18.51-.57-36.08-.85-53.65-23.84-1.86-47.66-.94-72.62-.72-1.57,9.6-2.95,18.06-5.1,31.24-4.56-15.09-3.69-25.34-1.91-37.18,5.5-.65,10.85-1.71,16.23-1.85,21.09-.56,42.19-.84,63.29-1.22-1.34-2.21-2.21-5.6-4.12-6.36-3.11-1.22-6.9-.92-10.41-.92q-72-.07-144,0c-3.51,0-7.31-.3-10.41.94-1.78.71-2.43,4.25-3.58,6.51,18.3.18,36.6.22,54.89.62,7,.15,13.92,1.12,20.87,1.71,2.06,2.44,5.76,4.8,5.87,7.32.39,8.72-.47,17.5-.85,26.25-2.58,3.08-4.44,3-5.36-1.22q-.63-12.42-1.25-24.82l-74.41-.54c-2.56,18,1.42,36.44-2.29,54.14-20.25,4-52.73,3.54-67.86-.88-1.47-14.36-2-28.89.29-44.08a168.68,168.68,0,0,1,48.95.12c1.24,10.45,3,19.95-1.59,30-5.83.28-11.37.91-16.9.73-8-.25-8.72-2-6.32-13,.6-.28,1.18-.6,1.8-.85,4.83-2,11.65,1.79,14.78-4.81,1.8-3.78-3.07-5.62-15.58-5.36-4.05.09-8.08.86-12.94,1.41-1.07,11.14-2.84,21.31,1.63,31.87,15.74.23,31,3.28,46.06-2,.78-16.31,1.72-31.67-.43-46.82-19.25-3.86-54.76-3.47-69.73.79-.48,12.29-1,24.8-1.49,37.81l-25.63,3.17c-4.39,15,1.4,30.22-4.32,44.8-18.77,2.15-37.11-.95-56,2.13-.85,6.82-1.6,12.87-2.43,19.49-18.28,3.86-36.74-1.06-55.14,3.29.2,4.24.36,7.61.55,11.69l23.68,3.15v13.22l-22.06,2.68c-7.57,10,3.6,12.34,5.72,19.07-18,32.16-41.88,59.42-74.82,77.75a131.3,131.3,0,0,1-31.28,12.48c-12,3-24.42,6.56-37.44,2.14-1-6-1.57-11.58-2.92-17-1.58-6.28-6.38-9.38-12.57-8.87-5.56.45-9.17,3.44-10.48,8.82-1.26,5.2-2.17,10.48-3.24,15.74-5.95.22-10.22-.37-11.21-5.52-.91-4.8-.49-9.85-1.15-14.72-.8-5.94-5.75-10.67-11-11.17s-11,3.35-12.77,9.16c-1.36,4.53-1.82,9.33-2.58,13.49-7.08,2.2-10.68-.18-11.41-6.19-.59-4.88-.11-9.88-.61-14.78-.66-6.54-4.66-10.7-10.39-11.54s-11.05,2-13.37,8c-1.67,4.33-2.45,9-3.84,14.29-3.72-1.53-6.79-2-8.6-3.77A13.46,13.46,0,0,1,432,575.6c-.74-4.85-.33-9.89-1.18-14.72-.92-5.17-4-9-9.64-9.85-5.31-.79-9.82.7-12.67,5.51-1.72,2.89-3.1,6-4.56,8.88l-12.11-1-12.37,16.42c5.77,7.06,12.85,10.23,19.46,14,22.85,13,47.65,21,72.61,28.58,14.91,1.36,29.65,3.43,43.57,9.76-15,2.38-29.77,1.1-44.38-2.3q-18.67-3.71-37.33-7.39c-12.14-2.39-23.4-8.76-37.19-9.3-.81,12.3-1.59,23.3.71,35l89.61,53.87c-4.37,12,.21,24.93-4.06,38.38-46.18,1.27-91.83-.25-138.49.91.55,5.34.94,9.1,1.35,13.09,4.77.31,8.28.45,11.77.79,4,.39,8,1,12.74,1.55v13.78l-23.73,2.23c-6.67,9.93,2.19,13.34,6,19-15.95,28.46-36.24,52.4-62.78,70.83a130.9,130.9,0,0,1-46,20.7c-11.61,2.62-23.33,4.88-35.73,1.22-.63-5.21-1-10.1-1.86-14.89-1.29-6.87-5.14-10.34-11.16-10.68s-10.5,2.69-12.47,9.1c-1.58,5.12-2.75,10.37-4.72,17.93-4.53-4.18-7.66-6.45-9.9-9.4-1.06-1.4-.38-4.1-.52-6.21a81.17,81.17,0,0,0-.61-8.42c-.92-5.55-4.72-8.52-9.89-9.66s-11.42,2.33-13.33,8.07c-1.71,5.13-2.49,10.57-3.65,15.78a20,20,0,0,1-5.72-.93c-1.07,8.11-2.15,17-3.17,26.39l2,.57c12.66-.94,23.89,5.3,36.23,6.64a59.31,59.31,0,0,1-36.25.44l-2.7-.34c-1.89,18.6-3.52,39.25-4.45,61,8,4.4,16.17,8.59,24.51,12.46,33.92,15.77,69.8,25.25,105.92,31.71.56,6.15,1,10.87,1.47,16l23,3.55c.11,7.28.29,14.25.29,21.22q0,79.44,0,158.88,0,109.11-.1,218.2c0,7.31,2.68,15.6-6.37,20.79-2.07,1.19-2.17,6.25-2.7,9.61-.74,4.75-1,9.57-1.46,13.86l-2.42,1c13.77,20.18,30.78,44.64,44.93,63.5,24.38-.17,48.34-1.45,56.76-3.67.06-18.6,1-37.5-.7-56l-11.28-5.27c-3-9.77,2.39-21.2-8.8-27.68-1.6-.93-1.61-5.21-1.74-8-.27-5.64-.14-11.3-.14-16.94q0-155.72,0-311.42c0-10.59-.15-21.19.15-31.77.11-3.91,1.32-7.8,2-11.45,3.49-.55,5.53-1.16,7.57-1.16q128.13-.11,256.25,0c3.28,0,6.57,1,10.62,1.71.22,8.77.58,16.43.58,24.08q0,167.37-.13,334.72c0,9.85,4.1,21.36-7.63,28.51-1.18.71-1.05,4-1.11,6-.15,4.88,0,9.77,0,14.27l-11.88,5.7c-2.85,24.52-2.39,44.41,1.28,58.76,31.43,3.11,93.36,2.05,107.62-2.07a390.42,390.42,0,0,0-.11-56l-11.63-5.81c-2.14-9.58,2.09-20.6-8.52-27.15-1.61-1-1.56-5.18-1.72-7.93-.27-4.93-.14-9.88-.14-14.82V996.18c0-5.65-.05-11.3.24-16.94a13.62,13.62,0,0,1,1.82-5.86,4.42,4.42,0,0,1,3.4-1.57c1.17,0,3.13.75,3.38,1.58,1.36,4.52,2.3,9.16,3.89,15.9,18.74-1.59,37.42,2.22,56.45-2.42.43-10,.82-19.09,1.21-28.19a138.11,138.11,0,0,1,.16-38.09c12.81-3.33,25.18-2.08,38.06-1.21,3.4,9.13,3,17.09.4,25.86-4.58.45-8.67,1.13-12.76,1.15-3.3,0-8.06.41-8.38-4-.51-6.87,4.57-4.81,8.66-4.35,3,.34,6-1.22,5.57-4.48-.28-2.19-2.56-5.59-4.31-5.84-5.42-.77-11-.28-16.82-.28-5.05,8.93-2.12,18.22-2.84,27.08,13.82,1.23,27.66,3.06,40.93-1.2,1.13-5.67,2-10.24,3.18-15.91h353.72c4.92,0,9.86,0,14.76.37,2,.15,3.83,1.36,5.54,2,1.06,5,2,9.65,3.12,14.79,5,.4,9.17,1.07,13.28,1,9.11-.21,18.22-.8,27.33-1.24-.23-8.34-.46-16.69-.67-24.27-7-4.76-13.35-4.12-19.37-2.31-1.88.56-3.92,3.89-4.08,6.08-.24,3.19,2.7,4.42,5.78,4.23,1.38-.08,2.91-1,4.06-.59,1.71.58,4.18,1.72,4.51,3.07.81,3.19-1.33,5.35-4.55,5.43-5.45.14-10.92-.16-16.68-.28-3-8.65-2.34-16.17-1-24.58,13.07-4.17,26-3.24,39.44-.63a139.29,139.29,0,0,1,.17,38.25c1.61,9.5-1,19.49,2.54,29.94,18.87.32,37,1,55.84-.35.82-5.17,1.13-9.28,2.26-13.15.43-1.46,2.78-3.29,4.23-3.27s4.25,1.91,4.39,3.21a182.55,182.55,0,0,1,.82,19q.06,218.19,0,436.39c0,4.24.15,8.49-.12,12.71-.17,2.75,0,7-1.62,8-10,6.07-6.57,16-8,24.6-.22,1.31-1.19,2.48-1.82,3.72l-10.19,3.8c-.78,20-2.42,39.36,1.22,60.15h36.7c12,0,24,.24,36-.07,11.69-.31,23.58,1.47,35.71-1.57v-58l-11.3-5.3c-3.73-8.83,3.23-20.66-8.62-26.69-1.21-.62-1.41-3.85-1.54-5.9-.25-4.22-.16-8.47-.16-12.7q0-172.65.08-345.31c0-6.09-1.82-12.69,3.84-19.52,87.88,0,176.72,0,265.57.06,2.64,0,5.28.9,9.12,1.6.27,6.77.73,13,.73,19.18q.07,170.53,0,341.07c0,8.79,2.36,18.33-7.24,24.7-1.62,1.08-1.41,5.19-1.71,7.93-.54,4.79-.82,9.61-1.16,13.85l-12.53,5.63c0,9.69-.26,18.85.07,28,.35,9.68-1.54,19.58,1.5,28.77,10.26,1.69,33.34,2.45,55.9,2.35,17.18-22.2,33-45.57,44.47-63.47l-3-1.4c-.31-5-.38-9.93-1-14.78-.34-2.66-.83-6.49-2.61-7.59-8.38-5.19-7-13.23-7-20.84q-.07-191.71,0-383.43c0-4.78.68-9.56,1.12-15.24l21.68-3.48c.44-3.15.89-5.86,1.18-8.59s-1.15-5.67,4.37-8.71c45.47-5.74,87.44-21.79,127.48-43.27C1873.78,949.16,1872,928.11,1870,909.75ZM599.64,759.07c6-4.69,12-3.54,19.38-1.42.34,3.12,1.44,6.58.8,9.67-.42,2.06-3.16,4.89-5.15,5.14-4.65.58-9.47-.18-15-.43Zm-11-2c.34,4.89.61,8.87.86,12.57-6.15,4.84-12.32,3.57-20,2.05-.25-4.21-.5-8.65-.74-12.75C575.63,754.13,581.55,756.34,588.66,757.09Zm-113.14,1.83c18.58-4.92,20-4.14,20.13,11-5.42,4.7-11.66,3.22-20.13,2Zm-63.15,5.17c.14-2,1-3.89,1.73-6.65a61.4,61.4,0,0,1,7.85-1.38c2.74-.15,5.51.31,9.51.59.74,4.51,1.46,9,2.45,15.08l-20.6,1.19C412.76,768.15,412.22,766.1,412.37,764.09Zm-29.72-5.61c19.05-4,19.73-3.54,19.2,11.77-5.61,4.24-11.73,3.08-19.2,1.38Zm-41.95,206a52.94,52.94,0,0,1-.47-8.36q0-45.17,0-90.33c0-4.64-.77-10.07,6.89-11.45.78,2.72,1.95,5.2,2.13,7.75,1.61,23.38.28,93.69-1.89,106.82C343,970.79,341.3,968.15,340.7,964.44Zm29.68,85.63c-6.83,4.46-13.65,2.94-20.78,1.85-4.1-5.12-3.27-10.42-1.24-16.4,6.09-4.32,12.84-2.86,22-1.26Zm6.41-79.7c-1.26-.62-3.43-1.11-3.5-1.81-4.37-45.62-1.41-91.34-1.59-137,0-2.34,2.29-4.69,4.54-9,2.37,4.68,4.77,7.42,5,10.35.65,7,.33,14.07.33,21.12,0,33.81.08,67.62-.08,101.43C381.5,960.75,383.28,967,376.79,970.37Zm25.36,81.87h-20c-.27-6-.5-11.29-.74-16.65,7.28-4.65,13.66-4.26,20.72-.45Zm2.5-81.76c-.65-5-1.54-9.08-1.66-13.19-1.76-62-.79-136.5,1.91-154.06,4.4-2.16,6,.38,6.81,4.15a20.32,20.32,0,0,1,.37,4.2q0,74,0,148C412,963.45,412.86,968.2,404.65,970.48Zm28.16,81.69-19.29.87c-.55-6.38-1-11.55-1.46-16.94,6.9-5,13.27-4.41,20.75-1.56Zm9.71-87.86c0,1.86-1.44,3.71-2.47,6.19-2-1.29-4.75-2.09-5-3.39a74.75,74.75,0,0,1-1.49-14.55q-.14-66.63,0-133.26a73,73,0,0,1,1.54-14.51c.27-1.26,3.07-2,5.1-3.22,1,2.5,2.36,4.37,2.36,6.25Q442.73,886.06,442.52,964.31Zm1.25-207.24,19.36-1.18c.48,5.8.84,10.24,1.33,16.14L443,773C443.34,766.2,443.52,762.34,443.77,757.07Zm19.9,293.51c-6.79,3.5-12.7,3.37-19.14.22-.48-1.77-1.43-3.71-1.45-5.67a91.82,91.82,0,0,1,.75-9.59c6.95-3.94,12.83-3.88,19.65-.49a57.27,57.27,0,0,1,1.06,7.75A58.17,58.17,0,0,1,463.67,1050.58Zm4.93-79.78c-1.19-2.15-3.22-4.34-3.57-6.77a103.93,103.93,0,0,1-.62-14.78c0-42.34-.1-84.69.07-127,0-6.25,1.13-12.52,2.06-18.74.12-.79,2.26-1.84,3.41-1.78s3,1.18,3.25,2.18a40.25,40.25,0,0,1,1.74,10.27q.17,72,0,144C475,962.86,475.87,968.34,468.6,970.8ZM495.47,1052H477.05c-3.42-6-3.17-11.75,0-18.34h18.43Zm3.35-81.93c-.81-2.4-2.16-4.75-2.35-7.2-2.14-27.28-.41-147.43,2.76-163.39,3.23,3.66,5.5,5,5.51,6.43.2,54.18,2.92,108.39-1.4,162.53C503.3,969,501.08,969.3,498.82,970.08Zm27.35,82.08-19.42.9c-.56-6.38-1-11.57-1.5-17,7-5,13.37-4.36,20.92-1.6ZM507.7,771.83c-2.85-16.13-2.85-16.13,17.72-14.35.4,4.2.82,8.64,1.36,14.35Zm26.06,199.24c-2.75-2.11-5.18-3-5.59-4.47A38.35,38.35,0,0,1,527,956.22q-.11-70.82,0-141.61a30.59,30.59,0,0,1,1.81-10.16c.44-1.22,3.15-1.62,4.94-2.45,3.3,14.87,5,117.48,2.59,158.55C536.17,963.71,534.85,966.81,533.76,971.07Zm21.78,80.52H538.68c-.51-5.14-1-10.17-1.5-14.95C556.41,1030.6,558.62,1032.42,555.54,1051.59Zm2-279.82-19.29,1.45c-.52-5.59-.91-9.92-1.29-14,6.5-5.07,12.57-2.84,20.58-2.55Zm4.11,199c-1.1-3.21-2.9-6.24-3.07-9.35-.46-8.42-.26-16.88-.26-25.33q0-55.93,0-111.88c0-5.63.07-11.27.46-16.87.19-2.8,1.6-6.1,4.83-5.14,1.91.57,3.38,3.81,4.3,6.14.73,1.86.41,4.17.41,6.27q0,71.79,0,143.56C568.26,962.9,569,968.21,561.61,970.8ZM588.89,1052H570.44c-3.37-6-3.1-11.74,0-18.36h18.45Zm9.48-87.74c0,1.86-1.42,3.71-2.49,6.31-6.44-2.36-6.17-6.21-6.11-9.43,1.11-52.76-2.93-105.59,2.17-158.28,0-.23,1.13-.44,1.74-.52a23.27,23.27,0,0,1,2.58,0c.7,1.67,2.12,3.49,2.13,5.33Q598.56,886,598.37,964.27Zm1.18,87.28v-17.89h19.67c.34,6,.64,11.26.93,16.32C613,1055.08,606.5,1053,599.55,1051.55ZM622.47,962c-.42-.08-1,0-1.21-.27-.49-.48-1.14-1.13-1.14-1.71q-.35-71.62-.53-143.24a42.74,42.74,0,0,1,1.23-8.13c.12-.59.91-1,1.4-1.54C625.19,823,625.39,942.75,622.47,962ZM1284.3,755.14H1305c4.09,5.6,3.16,11.48.28,19.33h-19.09C1281.1,768.27,1282.26,762.33,1284.3,755.14Zm-7.13,51.91c-5.38,6.9-11.58,4.09-17.8,3.38-.84-1.61-2.51-3.39-2.54-5.18-.08-4.72.56-9.44.94-14.56,8.2-3.29,16-1.74,23.46-2a152.23,152.23,0,0,1,20.93.53c2,.21,4.62,3.07,5.23,5.2,1.06,3.78-1.09,7-5.15,7.45-5.47.61-10.61.8-15.36-4-5.49-5.55-13-4.23-19.64-1.61-1.72.68-2.27,4.31-4,7.94Zm13.3,53.75c3.34-2.16,9.19-.83,13.81-.34,1.09.11,2.65,3.31,2.56,5s-1.69,3.66-3.1,5c-.87.8-2.63.88-4,.89-13.26.06-26.52,0-41.75,0v-21.7h19.43c-12.26,4.75-12.38,4.89-12.53,13.64C1273.69,865.83,1281.86,866.4,1290.47,860.8Zm-37.36-87.64c-.65-2-1.63-3.91-1.8-5.87-.29-3.41-.08-6.86-.08-12.52h18.69c5.06,5.93,2.5,11.91,2,17.69C1265.23,776.34,1259.38,775.86,1253.11,773.16Zm19.66-216.49a22.69,22.69,0,0,1,1.92-8.07c.33-.86,2.31-1.2,3.6-1.46a2.09,2.09,0,0,1,1.72,1.05c1,3.23,2.52,6.5,2.56,9.78.23,20.42.12,40.85.12,61.28h.08c0,17.61,0,35.22,0,52.83a103,103,0,0,1-.89,14.7c-.25,1.64-2.31,3.92-3.82,4.16-1.26.2-3.46-1.87-4.28-3.44a13.83,13.83,0,0,1-1-6.15Q1272.66,619,1272.77,556.67Zm-1-78v15.09h-19.59c-.44-4.87-.79-8.75-1.35-15.09Zm-9.39,345.11c1.24,7.48,2.43,13.87-6.84,15.35-2,.33-5.19.67-5.77,1.94-4.67,10.29-12.55,9.12-21.62,6.53-3.38-10.84-1.87-21.88-1.2-34,8-3,15-6.44,21.77,3.22C1251.17,820.2,1257,821.15,1262.43,823.76Zm-21.17,47.49c-1.37.14-2.75.17-4.64.28-1.55-.18-4.09.25-5.53-.82-1.92-1.42-4.22-4.09-4.07-6s2.8-4.74,4.89-5.36a19.31,19.31,0,0,1,10.15-.12,8.41,8.41,0,0,1,5,5.34C1247.94,868.5,1245.3,870.82,1241.26,871.25ZM1238.83,789c1.38,0,3.27-.23,4,.53,1.74,1.76,4.08,4.1,4,6.15s-2.59,4.15-4.44,5.77c-.85.74-2.67.37-3.82.48-8.53.18-11-1-11.79-5.65C1226,791.09,1229.92,788.68,1238.83,789Zm11.81-261.29q-.17,80.32-.76,160.65c0,.75-1.86,1.48-3.55,2.75-1.19-1.28-3.32-2.5-3.51-4a113.49,113.49,0,0,1-.75-14.76q-.08-65.62,0-131.25c0-6-1.75-12.61,4.71-20C1248.84,524.49,1250.64,526.1,1250.64,527.7ZM1144.12,419.46c5.59-.23,11.2,0,17.7,0,1.77-4.88,3.38-9.27,5.47-15l13-1.29c1.11,2.49,2.54,4.29,2.62,6.14.48,12.54.67,25.09,1,38.75,5.6.7,10.26,1.65,14.94,1.78,12.64.33,25.32-.15,37.94.61,6.74.4,7.15,5.26,3.94,11.63-22.35,2.61-45.28.46-68,1.19-6.22-11-.82-22.12-5.2-33.3-7.61-4.19-16.88-1.56-25.68-2.2-4.65-.34-4.66-.17-13.53-5.07C1133.41,418.31,1139,419.67,1144.12,419.46Zm77,73c-.2-3.81-.42-7.83-.64-11.93,7.26-4.68,13.74-4.22,20.32-1.09C1242.93,495.87,1241.29,497,1221.13,492.47Zm-72.38,83.84c0-14.11,0-28.21.08-42.32a35.15,35.15,0,0,1,1.14-8.28c.26-1,2.08-2.53,2.65-2.33a10.61,10.61,0,0,1,4.55,3.11c.76,1,.68,2.71.68,4.1q-.09,77.24-.32,154.45c0,1.87-1.4,3.73-3.2,8.22-6.72-6.55-5.49-12.32-5.51-17.5C1148.7,642.61,1148.75,609.46,1148.75,576.31Zm9.09-95.49c7.22-4.38,13.67-4.05,21-.94v14h-19.66C1158.69,489.05,1158.29,485.12,1157.84,480.82Zm1,274.42h18.84c3.19,6.31,1.69,12.1.33,18.91h-19.17Zm20.54-82.93q0-65.5,0-131a93.56,93.56,0,0,1,1-14.69c.23-1.44,2.69-2.52,5.74-5.17,1.37,4.46,2.51,6.44,2.51,8.42q.13,77.11,0,154.24c0,2-1.17,3.94-1.75,5.76-4.85,1.52-6.65-1-7-4.89C1179.43,680.76,1179.36,676.53,1179.35,672.31Zm11.7,82.38h17.83c3.9,5.91,3.18,11.72,1.06,17.75-5.42,4.8-11.51,3-18.52,1.89C1187.62,767.27,1187.63,761.51,1191.05,754.69Zm-1.28-269.15c.14-3.94,2.11-6.45,6.19-6.89,2.07-.22,4.16-.27,5.51-.36,5.91.4,8.79,3,8.89,7.4.12,4.91-2.27,7.76-7.28,8.14a28.68,28.68,0,0,1-8.28-.41C1190.82,492.51,1189.64,489.26,1189.77,485.54Zm-61.66-6.68c4.18-.45,7.59-1.12,11-1.08,2.71,0,5.41,1,8.86,1.62V492c-2.22.93-4,2.24-6,2.41-4.06.35-8.18.11-14.86.11C1127.56,487.57,1127.81,483.58,1128.11,478.86Zm19.73,276.29v17.24c-7.09,3.82-13.4,4.35-20.14-.43V756.91c1.7-.86,3.45-2.47,5.24-2.52C1137.61,754.26,1142.3,754.82,1147.84,755.15Zm-29.38-228.7c.17-1.41,2.82-3.69,4-3.51,1.56.23,3.52,2.29,4.06,4a27.21,27.21,0,0,1,.85,8.34q.06,71.89,0,143.79c0,4.73.72,10-6.26,12.85-1.17-2.37-3.11-4.61-3.3-7-.56-7-.52-14.08-.53-21.12q-.06-59.22,0-118.42A159.29,159.29,0,0,1,1118.46,526.45Zm-1,227.26c-.43,8.63-.7,14-1,18.89-7.22,3.48-13.13,3.62-20.11-.24V755.25Zm-.16-265.59c-.31,2.2-2.6,5.27-4.62,5.86-5.29,1.55-10.92,2-16.61-2.46V478.36h19.69C1116.36,481.81,1117.7,485.09,1117.27,488.12Zm-108.66-93.91c.77,7.43,1.55,14.86,2.38,22.87,15.64,3.48,30.83,1.94,46.59,1.26,4-7.83,2.27-15.65,2.54-23.12.29-7.64.07-15.29.07-24.26-6.64-.69-12-1.44-17.32-1.74-4.8-.27-9.64-.06-15.42-.06-3,9.31-2.52,17.44-1,25.67l6.45-1.32c.91-4.65,1.8-9.26,2.84-14.57h14.83v28.21c-9.78,4.58-19.58,3.39-30.88.74V362.71c3.59-.85,7.47-2.47,11.38-2.56,14-.32,28-.12,42.84-.12,1.06,5.14,2.45,9,2.57,13,.34,10.55,0,21.11.22,31.66.08,4.06.84,8.11,1.41,13.26l39,2.31c-1.58,3.18-2,5.69-3.28,6.26a20.33,20.33,0,0,1-8.07,1.46q-45.37.09-90.73-.09c-2.7,0-5.39-.88-8.8-1.47C1003.83,415.34,1003.57,404.87,1008.61,394.21Zm45.67,361c.43,5.57.84,10.83,1.19,15.4-6,6.27-12.26,4.54-20.83,3.18V755.24Zm-19.64-261.42V478.53h18.63c.8,3.94,1.67,8.21,3.12,15.29ZM1058.23,522c7.73,3.72,6.44,9.1,6.33,13.61-1.25,51.34,3,102.75-2.26,154,0,.43-2.39.62-4.76,1.18-.68-3.21-1.81-6.38-2-9.6C1053.26,630.09,1054.75,538,1058.23,522Zm25.06,232.73c4.27,6,3.28,11.88,1,18.17-5.83,3.41-11.65,2.92-18.74-.12-.31-5.15-.62-10.45-1.08-18.05ZM1065,492.52v-12c6.76-5.2,13.29-3.3,19.9-1.64.6,2.86,1.5,4.92,1.38,6.91-.43,7.15-2.12,8.88-8.51,9.3a24.85,24.85,0,0,1-6.28-.19C1069.53,494.55,1067.66,493.53,1065,492.52ZM1086,673.59q-.17-66.62,0-133.22a75.43,75.43,0,0,1,1.49-14.54c.26-1.3,3-2.11,5-3.41,1,2.47,2.46,4.31,2.46,6.16q.19,78.21,0,156.44c0,1.89-1.37,3.78-2.34,6.3-2-1.22-4.82-2-5.08-3.23A71.38,71.38,0,0,1,1086,673.59Zm-52-1.73a106.5,106.5,0,0,1-.79,14.74c-.24,1.65-2.29,4-3.84,4.3-3.32.61-4.81-2.22-5.13-5.07a116.27,116.27,0,0,1-.61-12.66q-.06-66.7,0-133.39a69.82,69.82,0,0,1,.88-12.61c.3-1.7,2.26-4.12,3.76-4.36,3.26-.53,5,2.2,5.18,5.11.43,5.62.53,11.27.55,16.91,0,21.17,0,42.34,0,63.51S1034.07,650.69,1034,671.86Zm-30-193h19.72c-.27,5.78-.45,9.69-.63,13.35C1002.94,496.48,1001.35,495.41,1004,478.83Zm-.92,276.36,19.43-1.28c.51,6.74.92,12.08,1.28,16.77-6.82,7.47-13.32,3.73-20.31,3.22-.63-3.88-1.34-6.53-1.4-9.2S1002.65,759.33,1003.12,755.19Zm-3.75-233.85c1.35,4.48,2.46,6.46,2.47,8.45q.12,77.18,0,154.34c0,2-1.15,4-1.72,5.78-4.85,1.53-6.65-1-7-4.9-.38-4.2-.44-8.44-.44-12.66q0-65.55,0-131.1a94.92,94.92,0,0,1,1-14.71C993.83,525.1,996.29,524,999.37,521.34Zm-28.15-40.41c6.63-5.46,12.75-3.33,20.21-2.87.46,5.09.87,9.57,1.47,16.33H972.51C972,489.22,971.59,484.75,971.22,480.93Zm0,191.4c0,4.93-.21,9.87-.7,14.76-.2,1.95-1.4,3.81-2.14,5.71-7.17-19.32-7.26-151.25-4.22-168.92,4.56-1.8,6.26.84,6.64,4.68.41,4.19.43,8.44.44,12.66Q971.32,606.77,971.25,672.33Zm.45,85c5.47-5.34,11.79-2.89,17.81-2.84,4.84,5.86,3.48,11.82,1.61,18.47-6.42,3.29-12.74,3.77-19.42-1.17ZM918.43,417.61c3.71-8.5,1.69-17.73,2-26.64.31-9.09.07-18.2.07-28.12,19-5.4,36.9-1.58,54.44-2.55,4,10.67,2.37,19.92,2.53,29,.1,6.19-.67,12.39-1.06,18.81-10,3.19-18.91,2.42-29,.85-3.7-9.69-1.45-19.23-1.62-30l12.11-.86c7.8,3.21,2.09,13,9.07,15.71,1.46-1,3.17-1.49,3.38-2.35a37,37,0,0,0-.65-21.36H939c-4,15.4-2.77,31.09-.72,48.22,15.36,1.58,30,1.1,44.24.31,8.39-7.48.9-18.49,7.79-27.25,1.69,2,4.33,3.73,4.42,5.55.44,9.08.2,18.2.2,27.84-3.26,1.16-5.78,2.84-8.31,2.86q-48.69.33-97.39.18c-4.12,0-8.84.16-9-6.5C892.16,416.41,905.28,421.54,918.43,417.61Zm-8.59,76.06c-.24-5-.44-9.3-.71-14.87h21.11c-.29,5.86-.48,9.79-.73,14.87Zm19.58,261.68v17.28c-6.7,3.58-12.53,3.41-19.76-.1-.26-4.77-.54-10-.79-14.82C915.27,752.19,921.42,753.8,929.42,755.35Zm.37-148.62h0c0-21.83-.06-43.66.05-65.49A86.24,86.24,0,0,1,931,526.6a6.09,6.09,0,0,1,4.11-4c1.38-.16,4,1.87,4.4,3.36A52.44,52.44,0,0,1,941,538.39q.13,68.65,0,137.33c0,10.89-2.72,17.1-6.15,15.53-6.65-3.06-4.92-9.48-5-14.8C929.67,653.22,929.79,630,929.79,606.73Zm12.93-128H960c2.94,15.95,2.94,15.95-16.37,15.35C939,489.51,939.52,484.53,942.72,478.7ZM942,755.16h19.51v16c-5.77,6-12,3.44-17.42,3.52C938.85,768.35,940.29,762.37,942,755.16ZM906.43,690c-4.61,1.48-6.27-1.17-6.59-5-.36-4.21-.4-8.44-.4-12.67q0-65.52,0-131.06a101.67,101.67,0,0,1,.88-14.71c.21-1.42,2.61-2.52,5.72-5.29C909.59,541.38,909.52,673.29,906.43,690ZM898.7,478.36c.4,5.06.72,9.06,1,13.14-7.11,5.2-13.6,4.64-21.18,1.31-.33-3.87-.68-7.87-1.25-14.45Zm-20.51,276.9,21.21-1.44c-.37,8.35-.61,13.68-.9,20.25l-16.26,1C875.7,769.09,878.39,762.8,878.19,755.26Zm-1.93-229.79a19.82,19.82,0,0,1,1.55,8.1q.13,72.93,0,145.86a23.54,23.54,0,0,1-1.15,8.23c-.56,1.47-2.87,2.27-5.64,4.26-1-4.33-2.15-7.48-2.3-10.67-2.35-48.22-.81-143.19,2.58-158.63C873.14,523.6,875.62,524.11,876.26,525.47Zm-40,83.38c0-22.54-.06-45.08,0-67.61a87.37,87.37,0,0,1,1.14-14.65,6.09,6.09,0,0,1,4.16-4c1.36-.18,4,1.84,4.38,3.31a53.13,53.13,0,0,1,1.48,12.45q.13,68.67,0,137.34c0,11-2.68,17-6.17,15.5-6.76-3-4.91-9.47-5-14.76C836.16,653.93,836.28,631.39,836.28,608.85Zm13.31,145.76h16c4.52,6.29,3.73,12.12,1.36,18-6.11,3.93-12,2.84-17.74,1.25C846.28,767.05,845.89,761.11,849.59,754.61Zm-.67-260.83v-15c5.48,0,9.69-.39,13.79.11s5.58,3.6,5.47,7.59-2.34,6.69-6.14,7.17C858,494.17,853.9,493.78,848.92,493.78Zm-94.07-42c18.77-4.75,37.92.39,58.06-3.52.56-16.08,1-30,1.54-44.25H830l3.33,13c1.91.7,3.79,1.74,5.78,2,9.49,1.47,19.48-1.8,29.4,2.75-3.76,8.51-11,5.17-16.54,5.69-6.16.58-12.42.14-19.83.14-.62,6.79-1.19,12.18-1.58,17.57-.35,4.84-.5,9.68-.72,14.2-14.19,4.73-57.21,5.21-75.43,1C754.57,457.81,754.69,455.11,754.85,451.81ZM816,758a10.56,10.56,0,0,1,6.79-3.77c3.93-.49,8,.19,13,.42v17.26c-5.43,5.31-11.52,2.75-16.6,2.45C815.44,770.85,813.57,761.56,816,758Zm-3.26-66.38c-2.4-1.8-5.51-2.93-5.82-4.59a80.16,80.16,0,0,1-.86-14.72q-.07-65.57,0-131.12a101.72,101.72,0,0,1,.88-14.72c.21-1.41,2.61-2.5,5.73-5.26C816.17,541.56,816.08,673.49,812.74,691.64Zm3.22-198V478.69l19.74-.94v15.89Zm-30.5-.89V478.37h19.83V492.5C798.57,496.3,792.6,496,785.46,492.75Zm19.82,262.67v16.69c-6.55,4.45-12.39,3.57-19.57,1-.38-5.23-.76-10.55-1.11-15.39C790.85,752.34,797,753.86,805.28,755.42Zm-50-277.53c5.42,0,9.52-.34,13.54.09,5,.53,6.68,4,6.48,8.71-.21,4.9-2.71,7.52-7.49,8a42.21,42.21,0,0,1-6.16.11c-6.17-.33-7.83-2-8.23-9.12C753.33,483.76,754.31,481.8,755.29,477.89ZM769.74,847.3c-8,2.56-15.16,5.18-20-4.63-.94-1.87-4.46-2.91-7-3.41-4.87-1-7.26-3.58-7.59-8.51-.4-6,2.24-9,8.11-10.14,2.48-.48,5.71-1.94,6.79-3.93,4.63-8.58,11.42-6.12,20.11-4.22C771.55,825,772.14,836,769.74,847.3Zm-10,24.36c-1.17-.2-3.52-.07-5.19-1.07s-3.51-3.26-3.29-4.65a11.71,11.71,0,0,1,3.76-6.6c1.34-1.14,4-.93,6.1-.9,4.31,0,8.58.51,9.76,5.81C771.8,868.57,767.45,871.68,759.69,871.66Zm-36.21-17.33a1.73,1.73,0,0,1-1.2-1.2c0-1.25.19-3.53.58-3.59,5.33-.79,10.7-1.29,15.75-1.82,5.57,7.37,4.3,14.1,2.48,22.06-3.69.88-7.57,2.57-11.46,2.61-11.9.11-23.83-.16-35.7-1-1.72-.11-4.34-3.81-4.46-6s1.89-5.67,3.83-6.46c5.28-2.15,11.42-2.7,16,1.2,6.87,5.83,14.23,4.47,22.91,3.36v-9.18C729,854.38,726.24,854.44,723.48,854.33Zm10-54.15c-.69-2.13-3.31-4.72-5.42-5.07-6.13-1.05-12.36-1.53-17.49,3.79S699,802.63,693,801c-1.42-.37-3.25-3.19-3.07-4.66.3-2.42,1.84-4.83,3.38-6.85.61-.81,2.62-.75,4-.75,13.85,0,27.7,0,41.18,0,5.3,7.6,4.56,14,2,20.54a21,21,0,0,1-17.86.13c.89-4.71,4.16-3.36,6.57-3.68C732.53,805.28,734.42,803,733.51,800.18Zm18.69-8.41c3.53-4.24,12.78-4.34,17.06-.17,1.17,1.13,1.53,4,1.06,5.72-1.05,3.87-3.68,4.82-11.35,4.68a22.42,22.42,0,0,1-5.09-1.16,4.59,4.59,0,0,1-2.35-3.14C751.3,795.73,751.12,793.07,752.2,791.77ZM757.82,775c-6.6-6.09-3.67-12.31-4-18.09,6.63-4.37,12.63-3.38,19.62-1.35a46,46,0,0,1,1.69,7.42c.22,2.73-.29,5.53-.66,10.91Zm-9-252.89c1.23,1.39,3.34,2.67,3.68,4.32A64.38,64.38,0,0,1,753.68,539c.07,45.17.13,90.34-.06,135.5,0,5.93,2.08,12.92-5.34,17.28-1.37-1.51-3.54-2.81-3.88-4.48a64.26,64.26,0,0,1-1.08-12.56q-.11-68.81,0-137.62C743.39,531.87,741.55,525.55,748.84,522.14Zm-26.16-43.52h20V493.9c-4.22.37-7.55,1-10.85.89C722.82,494.41,722.32,493.54,722.68,478.62ZM742.59,755.1v16.84c-5.64,5.23-11.76,2.76-18.57,2.35a64.87,64.87,0,0,1-2.12-8.18c-.35-2.74-.08-5.57-.08-11ZM716.67,547.05c2,1.39,3.5,1.88,3.86,2.81a17,17,0,0,1,1.2,6.1q.09,63.43,0,126.86c0,2.65-1.17,5.3-2,8.78-2.38-1.35-5-2-5.45-3.27a33.76,33.76,0,0,1-1.5-10.26q-.13-59.19,0-118.4C712.72,555.1,712.06,550.08,716.67,547.05Zm-4.55,209v16c-6.78,5.38-13.49,2.78-19.73,2.34-4.3-6.72-4-12.6-1-19.29C698,753.2,704.69,752.65,712.12,756.06ZM682,679.82q.13-49.76.63-99.5c0-1.11,1.45-2.2,2.58-3.8,1.61,1,4.05,1.62,4.69,3.06a20.65,20.65,0,0,1,1.44,8.14q.12,46.57,0,93.17c0,3.88.84,8.89-7.87,9.89C682.82,686.63,682,683.22,682,679.82Zm9.12,132.79c7.74-2.37,14.86-4.51,21.25,4.8,2.3,3.34,8.29,4.14,13.11,6.34V836C720,840.52,711.94,839,708.16,847c-2.11,4.45-10,2.9-15.44,1.18C688.11,834.55,688.08,834,691.08,812.61Zm10.77,129.76c-.67,4.67-1,9.44-2.2,14-.36,1.39-3.09,3-4.68,3s-3.23-2-4.72-3.27a2.86,2.86,0,0,1-.63-1.93c-.51-21.66-.8-43.32.26-67.4h25c4.36,13.3,4.81,30.7,1.2,52Zm50-32.27c-3.83,10.14-.68,20.86-2.54,31v36.23c-11.86,6.13-24.37,1.22-36.49,3.13-5.53-10.41-4.15-19.69-2.13-29.6,3.28-.64,5.92-1.56,8.57-1.6,4.8-.07,9.61.37,13.45.56C737.26,954.33,736,958,734,963l-11.32-4.16c-4.86,2.73-3.62,6.63-2.46,11.31,2.89.55,5.54,1.48,8.2,1.48,4.82,0,9.63-.55,14.37-.86,5.68-9.63,1.72-19.89,4.06-29.26l-14.54-2c-5.17-12.17-5.81-26.7-2-52.25,5.78-.37,11.87-.91,18-1.1,6.27-.19,12.56,0,19.64,0,2.47,6.89,4.75,13.24,7.43,20.73Zm24.62-222.05a8.43,8.43,0,0,1-1-4q-.18-75.06-.18-150.13c0-3.4.93-6.8,1.9-13.46,4,3.61,6.39,4.73,6.61,6.19a100.33,100.33,0,0,1,.9,14.72q.09,65.55,0,131.11a99,99,0,0,1-.91,14.72c-.23,1.44-2.67,2.53-4,3.73C778.27,689.68,777,689.06,776.45,688.05ZM832,926.67a28.8,28.8,0,0,1-20.77-.18v-6.18a30,30,0,0,1,20.77-.14,4.11,4.11,0,0,1,2.06,3.21A4.22,4.22,0,0,1,832,926.67Zm29.86.49c-9.8,2.5-12.27,1.55-17.57-6,6.77-3.48,13.14-3.3,21.35-.26C864.18,923.38,863.4,926.76,861.84,927.16Zm30.9,0c-1.57,1-3.87.91-7.47,1.59-2.3-1.13-6.33-2.14-8.85-4.65s3-5.65,10.52-5.42a19,19,0,0,1,6,1c1.05.4,2.54,2,2.39,2.8C895,924.19,894.08,926.28,892.74,927.16Zm32.65-.61a78.9,78.9,0,0,1-14.12,1.09c-1.36,0-3.59-2.64-3.65-4.13s1.94-3.49,3.52-4.25c1.74-.84,4-.52,7.16-.8a48.05,48.05,0,0,1,6.91,1.73,4.16,4.16,0,0,1,2.11,3.12C927.34,924.42,926.23,926.43,925.39,926.55Zm32.88-2.86c-.57,2-3.61,3.45-5.8,4.71-1.09.63-2.74.27-5.54.45a46.89,46.89,0,0,1-6.67-1.75c-1-.4-2.33-2.27-2.12-3.12.45-1.75,1.6-4.4,2.87-4.66a55,55,0,0,1,12.37-.85C956.42,918.56,959.13,920.73,958.27,923.69ZM988,926.1a23,23,0,0,1-7.76,2.06c-7.22.38-13.08-3.27-10.68-5.51,2.66-2.47,6.75-3.42,9.84-4.85,3.58,1.13,6.18,1.87,8.7,2.83.44.16.81,1.23.76,1.84C988.74,923.74,988.68,925.81,988,926.1Zm30.91.5a81,81,0,0,1-14.23,1c-1.35,0-3.59-2.65-3.63-4.14s2-3.5,3.54-4.26c1.75-.84,4.07-.51,7.21-.77a48.18,48.18,0,0,1,7,1.7,4.15,4.15,0,0,1,2,3.17C1020.79,924.46,1019.7,926.48,1018.89,926.6ZM1048,928c-1.78.88-4.13.6-5.73.77-1.91-.1-3.54.27-4.67-.32-2.27-1.19-4.85-2.49-6.2-4.49-1.55-2.29,2.26-5.72,6.71-5.81a37.08,37.08,0,0,1,10.38.93c1.46.4,3.31,3,3.2,4.52S1049.64,927.2,1048,928Zm32.46-.83a149.72,149.72,0,0,1-15.85-.4c-.79-.07-1.92-2-2-3.21s.79-3,1.67-3.27a85.48,85.48,0,0,1,9-2.19c2.84.48,5.18.31,6.75,1.32,1.38.89,2.29,3,2.63,4.77C1082.84,925.07,1081.28,927.16,1080.46,927.18ZM1114.2,924c-2.22,2.75-6.4,3.91-9.26,5.51-3.82-1.08-6.55-1.59-9-2.69a4.43,4.43,0,0,1-1.89-3.38c0-1.18.7-3.11,1.61-3.48a24.31,24.31,0,0,1,8-1.94C1111.5,917.73,1116.64,921,1114.2,924Zm30.93.15c-1.83,5.38-6.56,4.27-10.56,4.49-2.08.12-4.44.13-6.22-.75-1.63-.81-3.58-2.82-3.66-4.39s1.8-3.62,3.36-4.51c1.71-1,4-.86,5.22-1.06C1142.08,917.8,1146.46,920.29,1145.13,924.19Zm9.95-4.25c12.64-1.43,22.67-3.1,35.64,2.91C1170.79,930.69,1162.24,930.05,1155.08,919.94ZM1204,908.88c-5.61.47-11.27.3-16.91.3q-188.38,0-376.75,0c-5.65,0-11.31.16-16.92-.29-2.49-.2-4.87-1.73-10.67-3.94,4-2.25,5.65-3.89,7.47-4.09a157.4,157.4,0,0,1,16.82-.9q191.55-.06,383.1,0a135,135,0,0,1,16.83.88c1.56.19,2.85,2.52,5.3,4.87C1208.87,907.07,1206.5,908.67,1204,908.88ZM1216.57,691c-2-1.28-3.86-1.92-3.87-2.59q-.84-79.12-1.28-158.25c0-2.39,1.55-4.8,2.38-7.21,2.23.75,4.21.84,4.56,1.65,1.1,2.49,2.19,5.24,2.2,7.9q.17,75,0,150C1220.58,686.1,1219.43,689.12,1216.57,691Zm6.15,62.8,18.4,1.25V771.8c-5.68,5.28-11.74,2.92-17.52,2.64C1218.8,767.09,1220.48,760.86,1222.72,753.8Zm64.44,224.13c-12.66,4.6-25,1.4-38,2.08-3.46-13.89-2.52-26.35-1.12-38.83-.44-9.75-.87-19.5-1.36-30.47l-24.41-3.92,6.38-19.47c12-2.31,24.44-1.08,38-.64,4.2,17.27,2.45,34.25,1,52l-17,2.82c.51,9.05,1,18.1,1.57,27.69,8.13,3.56,15.56,2.7,22.88,1.45,2.94-10.93,2.37-11.82-4.84-10.17-9.07,2.06-9.07,2-7.42-10,7.26-2.12,14.76-1.78,22.71-.08C1290.15,959.29,1288.52,968.13,1287.16,977.93Zm20.19-29.83c0,3.84,1.26,9.4-4.49,10.18-6.58.88-4.93-5-5.7-8.72-.55-2.66-1.21-5.31-1.74-7.61l-15.23-3.87V888.75c8.16-4.26,16.28-2.33,25.64-1.82.61,4.67,1.52,8.65,1.56,12.63C1307.55,915.74,1307.57,931.92,1307.35,948.1Zm-.41-100.53c-8.43,1.8-15,4.13-20.28-5.51-1.77-3.23-8.43-3.8-13.45-5.83-.22-4-.43-8.06-.62-11.69,6-5,15.8-2.28,17.48-11.57l14.29-2.38C1310,823.14,1307.32,834.83,1306.94,847.57Zm6.94-164.76c0,3.4-.38,7.17-7.44,8-.71-3.35-1.78-6-1.79-8.72q0-49.71.28-99.42c0-1.9,1.34-3.8,2.29-6.31,2,1.17,4.25,1.75,5.23,3.17a11.2,11.2,0,0,1,1.44,6Q1314,634.15,1313.88,682.81Zm284.38,74.33c3.88-.5,6.56-1.2,9.22-1.12,10.55.32,11.15,1.34,9.36,15.78h-19.23C1597.84,766.64,1598,762.2,1598.26,757.14Zm-12.73-.47c.45,5.16.8,9.11,1.15,13.05-6.79,5.33-13.26,2.9-19.6,1.87C1565.44,756.33,1565.44,756.33,1585.53,756.67Zm-78-.13a43.49,43.49,0,0,1,6.22-.52c11,.65,11.19,1,10,15.16-2.38.55-5,1.51-7.62,1.66a98.58,98.58,0,0,1-10.54-.51C1503.18,766.12,1502.78,761.14,1507.53,756.54Zm-29.84-.11c4.11-.39,8.29-.08,14.76-.08.28,6,.46,10,.64,13.75-6.48,4.32-12.5,3.36-19.83,1.09-.39-2.13-1.21-4.68-1.24-7.24C1472,760.19,1473.44,756.84,1477.69,756.43Zm-33.49.43,16.29-.78c.81,5.18,1.51,9.6,2.54,16.15h-18.65C1440,767.2,1440.63,762.78,1444.2,756.86Zm-33.06.48c3.45-.6,6-1.43,8.61-1.43,10.94,0,11.25.48,11.47,13.62-8.55,3.45-8.54,3.59-20.08,1.59ZM1375.9,969.71c-4.33-16-1.94-29.75-2.38-43.25s-.1-26.78-.1-40.17c0-14.1-.28-28.2.09-42.29.34-12.91-1.73-26,1.94-40,1.34,2.56,2.53,3.77,2.53,5q.27,76.09.26,152.21C1378.24,963.12,1377.21,965.07,1375.9,969.71Zm7.77-213.09c4.56-.58,9.24-.13,15.77-.13v15.43H1380c-.53-2.68-1.34-5.14-1.45-7.63C1378.42,760.65,1379.67,757.13,1383.67,756.62ZM1398,1052.17h-18.76v-18.39h18.43C1401.46,1039.83,1401.08,1045.6,1398,1052.17Zm12.34-104.32c0,4.93,0,9.88-.32,14.8-.24,3.44-1,8-5.29,7.17-2-.39-3.49-5.21-4.59-8.25-.68-1.88-.22-4.19-.22-6.3q0-68.79,0-137.58c0-3.52-.31-7.21.64-10.5.62-2.17,3.26-3.75,5-5.6,1.32,1.51,3.57,2.89,3.78,4.54a135.29,135.29,0,0,1,1,16.84c.1,20.46,0,40.92,0,61.38Q1410.37,916.11,1410.36,947.85Zm.78,102.8v-15.48c6.88-3.55,12.75-3.54,19.84.38.24,4.2.5,8.92.81,14.4C1423.87,1054,1418,1054,1411.14,1050.65ZM1434.42,971c-1-4.26-2.28-7.39-2.45-10.58-2.4-44.37-.76-143.56,2.61-158.63,1.82.93,4.52,1.43,5,2.72a31.08,31.08,0,0,1,1.71,10.18q.15,70.83,0,141.67a37,37,0,0,1-1.24,10.36C1439.64,968.2,1437.17,969,1434.42,971Zm27.46,81.46h-18.09c-3.68-6.3-3.27-12-.35-18.92h18.44Zm7.61-81.27c-2.77-2.07-5.29-3-5.59-4.37a59.56,59.56,0,0,1-1.17-12.52q-.11-68.76,0-137.53a49.42,49.42,0,0,1,1.62-12.35c.32-1.22,3.13-1.79,5-2.74,3.22,15.46,4.74,113,2.47,158.8C1471.63,963.7,1470.46,966.85,1469.49,971.22Zm21.82,81h-18.72v-16.83c6.35-4.22,12.31-3.68,18.51-1.5C1494.75,1039.83,1494.39,1045.62,1491.31,1052.22Zm12.15-87.63c-.47,2.38-2.63,4.43-4.41,7.23-2.18-2.29-4-3.53-4.84-5.26a14.32,14.32,0,0,1-1.13-6.12q-.07-75,.1-150a14.08,14.08,0,0,1,2.78-7.58c.63-.88,4.07-.86,5.22,0,1.42,1.11,2.27,3.51,2.49,5.45a111.11,111.11,0,0,1,.51,12.65q0,65.49,0,131A66.94,66.94,0,0,1,1503.46,964.59Zm1,89.05v-20h19.67c.4,6.07.76,11.33,1.21,18.08Zm30-95.32a24.58,24.58,0,0,1-1,8.28c-.55,1.5-2.81,2.38-5.34,4.34-1.12-3.43-2.45-5.82-2.63-8.29-2.19-28.63-.44-147.11,2.36-160.76,1.81.86,4.33,1.24,5,2.54a19.12,19.12,0,0,1,1.65,8.05Q1534.61,885.4,1534.51,958.32Zm21.2,91.35c-1.48,1.24-2.48,2.79-3.55,2.84-5.42.25-10.86.12-17.06.12v-17.4c6.59-4,12.58-3.54,20.61-.57ZM1535.5,771.91V759.09c5.7-4.68,11.71-3.45,19.25-1.32.29,4.14.59,8.57,1,14.14Zm27.3,199.21c-2.77-2.1-5-3-5.6-4.44a24.32,24.32,0,0,1-1.08-8.27q-.07-72.93.05-145.86a19.37,19.37,0,0,1,1.61-8.07c.63-1.32,3.15-1.76,5-2.67,3.18,15.28,4.74,115.26,2.46,158.66C1565,963.65,1563.81,966.77,1562.8,971.12Zm3.42,81v-18.66h19.91c.29,6.32.53,11.69.92,20Zm25.19-81.85c-.71.24-2.73-1.32-3-2.37a39.11,39.11,0,0,1-1.84-10.21q-.18-71.78,0-143.53a26.08,26.08,0,0,1,1-8.29c.59-1.74,2.58-3,4-4.48,1.78,1.82,4.77,3.45,5.1,5.51.88,5.51.76,11.2.78,16.82.07,21.1,0,42.21,0,63.32,0,21.81.07,43.62-.07,65.43a77.12,77.12,0,0,1-1.46,14.55C1595.61,968.42,1593.13,969.7,1591.41,970.29Zm21.63,82.54c-4.64.37-9.33.13-16.45.13.49-8,.81-13.3,1.2-19.59h19.8c.5,6,.93,11.19,1.36,16.44C1616.48,1051.13,1614.82,1052.69,1613,1052.83Zm14.83-96.09a36.23,36.23,0,0,1-1.31,10.34c-.42,1.4-2.94,2.16-5.6,4-.88-4.32-2-7.55-2.13-10.82-1.78-38.07-.54-117.77,1.94-132.85,4.47-1.72,6.21.8,6.74,4.62a60.87,60.87,0,0,1,.4,8.44Q1628,898.59,1627.87,956.74Zm1,95.61c-.27-6.18-.5-11.51-.74-17,8.13-4.38,15.49-3.24,24.11-1.33.3,5.67.58,11,1,18.29Zm27.45-83c-4.67,1.28-6.36-1.6-6.57-5.35-.4-7-.44-14-.44-21q0-40,.14-79.94c0-4.22.5-8.67,6.64-8.23C1659.76,870.38,1659.92,952.17,1656.29,969.31Z"/><path class="cls-4" d="M470.56,714.51c-24-8.3-47.66-7.51-71.22,1.46-2.47,2.31-5,4.54-7.38,6.94-8.69,8.74-10.54,19.43-8,31s14.35,19.75,26.18,18.67c7.74-.71,13.84-4.23,17.25-11.53s3-14-3-20l-3.25,3.28c.37,1.41.87,2.8,1.1,4.23.84,5.25-.46,9.89-5.29,12.5A13.22,13.22,0,0,1,401.94,760a14.34,14.34,0,0,1-5.7-14.14c2-13.41,17.84-19.44,29.52-11.35,10.54,7.31,12.37,22.78,4,33.61s-24.16,13.24-36.86,5.82c-12.27-7.17-18.49-21.74-14.86-36.5,2.36-9.58,6.59-18.27,16.37-22.72.87-2.52.19-4.59-1.51-6.61-27.24-32.35-80.9-29.4-104,5.86-1.18,1.81-1.05,4.48-1.53,6.76,8,9.64,8.2,11.75,1.64,22.63-3.1,3.69-7.24,4.56-11.72,4.08a11.93,11.93,0,0,1-10.45-11.82c.05-5.37,3.52-8.86,10.13-9.92a19.11,19.11,0,0,1,4.3.3,11.13,11.13,0,0,1,.39-2.69,19.85,19.85,0,0,1-.7-2.27,53.35,53.35,0,0,1-5.68-1.14c-26.66-8.33-64.18,9.93-67.94,47.6-.39,3.84-.44,7.72-.65,11.58,2.16,10,7.45,19.2,8,29.65,0,.23-.68.5-1,.75-7.74-7.57-10.6-15.45-11-30.37-1-2.69-3.27-3.33-5.77-3.44a169.17,169.17,0,0,1-41.62-7.16c-2.78,10.24-5.8,21.9-8.62,33.9,13.22,9.53,24.81,21,35.95,32.93,16.57,17.71,37.1,23.74,60.73,20.8,4.75-.59,9.5-1,14.94-1.65,1.28,4.29,2.29,7.93,3.45,11.52,16.69,51.74,76.35,64.94,113.28,35.75,2.66-2.1,5.16-4.39,7.74-6.59,2-3.87,4.21-7.64,6-11.61,7.88-17.82,3.56-39.32-10.38-52.39-14.18-13.3-36.45-13.33-50.23-.06-11.52,11.1-12.14,29.43-1.37,40.69,8,8.37,21.8,9.36,30.48,2.2a18.41,18.41,0,0,0,5.06-21.17C358,843.23,346,841.21,339.58,849a9.25,9.25,0,0,0,0,12c2.08,2.61,4.86,3.07,7.83,2.41,2.7-.6,3.89-2.73,4.1-5.34.16-1.85,0-3.73,0-5.58,4.51-1.1,5.71,1.53,5.84,4.45a12,12,0,0,1-16.75,11.91,15.1,15.1,0,0,1-7.78-19.49c5.17-12,21-14.59,30.34-4.85a22.77,22.77,0,0,1,.74,30.54c-10.2,12-28.64,12.72-40.31,1.58C310,863.6,309.69,842.05,323,828.17c15.26-15.86,41.35-16.73,58.12-1.94,16.24,14.31,21.42,37.94,13,58.73-1.77,4.38-5.73,8.09-4.38,13.5,3.59,1.47,7.14,3,10.77,4.39,17.64,6.55,35.59,8.72,54.33,5.26,45.09-8.31,78.67-44.88,82.39-91.51C540.9,771.49,512.91,729.18,470.56,714.51Z"/><path class="cls-4" d="M1432,623.76c23.77,17.8,49.2,17.92,76.26,6.86a27.74,27.74,0,0,1,3.29,3.57c4.8,7.3,11.74,11.47,19.84,14.17,13.22,4.4,26.9,5,40.62,4.67,21.67-.5,43.09-3.45,64.36-7.44,21-3.94,41.64-3.16,61.65,4.95,5,2,9.82,4.51,14.72,6.78a17.94,17.94,0,0,1,1.46-1.29,30.15,30.15,0,0,0-2.57-4.55c-17.35-21.07-39.31-33.82-66.67-36.76q-6.92-.74-13.85-1.51c-18.35-.2-36.6.74-54.76,3.89a51.51,51.51,0,0,1-21.43-1.27c-7.55-1.92-14.05-5.56-18.57-12.09-4.89-7.06-5-14.35-.36-21.07.43-.61,1.71-.64,2.78-1-2.29,13.33-2.39,15.18,1,19.7,4.17,5.49,9.18,9.8,17.35,9.49-2.63-7.47-4.88-14.28-1.29-22.33,1.16,1.39,2.47,2.24,2.56,3.21.26,2.84-.23,5.76,0,8.61.71,7.43,5,11.78,12.47,12.46a30.49,30.49,0,0,0,8.59-.29c17.06-3.31,34.31-3.56,51.58-3.44.51-2.1,1.15-4.17,1.49-6.3,3.73-23.75-15.94-39.74-32.91-39.36-1.07,0-2.15.11-3.23.16-4.35,2.3-8.91,4.22-12,8.46-4.14,5.77-4.64,13.89-.35,18.72a22.66,22.66,0,0,0,7.72,5.27c3.08,1.36,6.24.29,9-1.6l-1.83-2.52c-1.79-.11-3.7.17-5.33-.38-5.79-2-7.83-7.81-4.79-13.07,3.16-5.46,10.67-6.84,16-2.86,4.49,3.38,6,7.9,4.82,13.35a14.86,14.86,0,0,1-11.7,11.31,18,18,0,0,1-19.43-10.41c-3.57-7.66-1.4-17.28,5.44-23.59a23.16,23.16,0,0,1,12.35-6.18c-1.25-10.56-7-18.72-14.11-26.05-10.23-10.62-22.79-17.51-36.8-21.71-24.64-7.37-49-6.94-72.84,3.36a29.84,29.84,0,0,1-3,1.08,9.4,9.4,0,0,1-1.93,0c-1.81-2.31-3.89-5.14-6.16-7.81a36.73,36.73,0,0,0-61.77,8.56c-1.31,2.91-1.89,6.16-2.72,9.27-.55,2-.93,4.1-1.35,6-23.78,3.56-29.66,11.39-25.07,33.53-1.83,2.18-4,4.56-5.92,7.07-9.94,12.82-10.43,29.06-.81,42.09a43.28,43.28,0,0,0,10.73,10.49c16,10.44,32.87,11.69,50.33,3.79a13.29,13.29,0,0,0,2.72-1.72,8.65,8.65,0,0,0,1.26-1.64c-.35-1-.71-2-1.06-3-7.76-6.31-10.87-15.16-12.45-24.46-4.15-24.39,13.26-45.73,37.92-46.47a31.64,31.64,0,0,1,32.13,36.26c-2.44,15.13-18.24,24.84-32.48,20.08a20.55,20.55,0,0,1-13.06-25.2,17.41,17.41,0,0,1,16.43-11.85c6.55.07,11.76,4.37,13.75,11.65.43,1.56.61,3.63-2.71,4a44.47,44.47,0,0,0-2.26-5.59c-2.94-5.27-8.34-7.11-13.83-4.81-5.2,2.19-7.76,6.36-8,11.83-.45,9,6.86,16.72,16,17.16a21.35,21.35,0,0,0,22-18.27,27.15,27.15,0,0,0-23.62-30.8c-15.68-2-31.55,7.86-36.48,22.87-4.23,12.87-2,24.92,5.33,36.14C1428.17,618.54,1430.11,621.12,1432,623.76Z"/><path class="cls-4" d="M1127.38,596.31c-1.23-17.5,10.87-25.37,23.95-31.72,6.59-3.2,14.25-4.18,22.33-6.41,26-37.84,62.39-56.16,108.49-45.48,45.18,10.48,69.71,42.18,77.27,88.68,3.91,1.39,8.15,3.23,12.57,4.42a96.48,96.48,0,0,1,36.07,18.37c1.92,1.55,3.29,3.76,5.94,6.87l-16.17,6.9c10.23.06,16.75-.23,23.23.21,12.66.85,24,4.4,30.16,17-4.4,1-8.77,2.52-13.2,2.73-13.89.67-25.89,5.21-35.46,15.53l-3.44,3.84c-9.95,10.51-13.85,23.36-12.68,37.38.58,7,.63,15.26,9.13,19,.44-1.46,1.48-3,1.11-3.93-6.67-17.29-3.29-33.28,5.94-48.58l4-4.23c14-11.41,30.48-13.59,47.78-12.63,1.84.88,3.65,1.83,5.53,2.63,37.6,16,53.87,56,37.81,92.8a71.4,71.4,0,0,1-94.16,36.72c-5.58-2.44-10.86-5.55-16.63-8.53-38,12.16-73.72,10.36-104.34-18.87,7.2-18.1,7.14-35.09-7.57-49.85-17.66-14.93-27.31-15.88-47-4.65-3.24,3.36-7.42,6.22-9.54,10.18-6.75,12.67-3.06,28.89,7.59,36.69,7.49,5.48,19.3,6.22,27,1.51s10.67-12,9.7-20.88c-.81-7.49-5.29-12.85-12.18-14.67-8-2.13-14.74.55-18.83,8-1.84,3.36-3,7.09-4.38,10.53-5.09-1.17-5.46-4.5-5.54-8-.21-8.23,4.71-13.89,9.76-19.48,14.07-6.58,27.29-5.42,39.55,4.37,8.73,12.14,12.34,25.11,6.8,39.73-.7,1.82-.59,3.95-.86,5.94-20.29,27-55.77,33.36-86.68,20-12.44-5.4-25.65-9.15-38.71-12.95-26.14-7.6-52.42-7.59-78.75-.5-24.34,6.55-48.71,13-73.15,19.16A120.3,120.3,0,0,1,953,796.24c-19.52-2.82-34.22-12.81-42.79-31-.81-1.72-.56-3.93-1-7.39,3.57.3,6.61.28,9.55.84,13.71,2.6,27,1.3,40.39-2.63,18.45-5.41,35.77-13.37,52.38-22.8,16-9.07,31.41-19.2,47.23-28.6,7.56-4.49,15.49-8.39,23.25-12.55,1.23,4.35,2.46,8.7,3.9,13.74-8.73,5-16.39,9.31-24.05,13.64-14,8-14,7.94-19.87,16.33,10.14-1.13,16.81-7.32,24.42-11.15,7.86-4,15.52-8.32,22.32-12a9.83,9.83,0,0,1,6.66,2.93c8.17,7.74,7.67,11.24-2.33,16.31-20,10.18-40,20.45-60.19,30.45-24.17,12-49.3,19.81-76.82,16.47-2.38-.29-5.62-1.3-6.45,3.39,1.44.8,2.93,2,4.63,2.5,15.72,4.32,31.13,1.23,46.39-2.56,16-4,30.69-11.14,45.14-18.91,17.37-9.33,34.56-19,54.18-25.87,2,5.45,3.68,10.53,5.76,15.43,1.16,2.72,2.31,6.42,6.77,4.07-4-29.54-9.44-19.83,4.83-63.53-9.91,1.29-7.55,14-16,16.6-7.76-4.25-8.59-13.41-13.56-19.61-.88-6.68-2.46-13.36-2.51-20.06-.23-29.3,10.61-52.51,37.8-66.27,18.13-4.65,35.25-2.77,51,7.81l3.84,3.39,5.69,2.79-1.86-6.24-4.27-3.91c-3.13-2.36-6-5.17-9.43-7C1155.17,594,1141.3,594.72,1127.38,596.31Zm328,146.39c11.7-15.49,12.48-20.92,2.24-37.3,1.24,14.41,1,25.09-6,33.81l-3.72,3.4c-14.39,8.75-28.14,7.09-41.39-2.56-1.09-.79-2.23-1.51-3.34-2.25-1.67-.73-4.49-2.42-4.82-2-2.24,2.69-.4,4.66,1.89,6.3,18.72,15.82,31.43,17,51,4.63ZM1128.81,634.2c-10.56,16.41-10.85,27.37-.71,40.31,1.91,2.45,4.61,5.15,7.9,1.23-10.66-18.68-10.69-19-3.79-37.41,7.56-6.85,17.66-3.88,27.47-5.94-4.29-6.43-9.49-7.31-15-6.53C1138.53,626.73,1132.92,629.17,1128.81,634.2Zm56.7,37.31c8.8-9,11.11-20.22,9.71-32-.82-6.88-.73-15.19-11-19.66,4.65,17.12,7.26,33.14-2.57,48l-8.11,9.42C1180.71,676.91,1180.71,676.91,1185.51,671.51ZM1281.28,615c-9.19-8-19.29-13.58-32.36-12,8.81,6.87,19.76,9.75,29,15.66,12.37,12.51,17,28.38,18.42,45.69,2.33-1.11,4.24-1.41,4.49-2.22,3.83-12.49-4.39-23.37-5.57-34.37,5.18-9,13.38-10.21,21.17-12.47,7.55-2.19,15.3,3.94,25.15-.92-20.43-10.67-36.89-4.35-52.31,5.32Zm-145,64.27c11.24,9.25,20.27,8.93,29.44,6.24,2.2-.65,3.75-3.53,6.25-6Zm321.86,27.29c-5.9-14.26-10.25-16.46-21.56-11.71Z"/><path class="cls-5" d="M932.81,1015.65c6.65,2.3,13.32,4.54,19.93,7a8.63,8.63,0,0,1,3,2.49q17,18.6,34,37.27c.52.57,1,1.13,1.82,2-25.5,25.64-53,48.87-82,71a118.23,118.23,0,0,0-12.47-36.65c-2.51-4.82-3.26-9.71-3.66-14.88-.39-5-.67-9.95-1.49-14.85a12.47,12.47,0,0,0-3.06-6c-2-2.17-4.77-2.37-7.28-.65s-2.9,4-2,6.77c.42,1.33.81,2.66,1.41,4.66a25.69,25.69,0,0,1-2.64-1.22c-6.26-4-12.93-4.34-19.77-2-7.33,2.5-11.06,9.13-9,16.58,1.2,4.3,3.39,8.32,5.1,12.38-4.86.29-9.95.15-14.89,1-11.81,1.94-21.17,8.2-28.31,17.68-5.57,7.41-4.05,13.69,4.12,18,2.51,1.33,5.08,2.17,6.13,5.46a4.4,4.4,0,0,0,5.88,2.51c7.47-3.08,15.1-1.87,22.6-.94q23,2.85,45.92,6.6a135.59,135.59,0,0,1,19.2,5.12c2.69.87,5,2.94,7.51,4.35A12.75,12.75,0,0,0,927,1161c6.68,1,13.36,1.86,20.07,2.52,3.54.35,5.47,1.36,5.65,5.48.42,9.24,1.39,18.45,2.12,27.6-7,1.11-7.56,1.83-8.59,8-6.94,41.82-29,72.86-66.59,92.58-23.66,12.42-49,19.07-75.59,21.15-7.35.57-13.4-2-18.51-6.55-4.23-3.78-7.25-8.9-11.42-12.77s-3.89-8.42-3.8-13c.5-26.11.67-52.25,1.93-78.33,1.13-23.32,3.17-46.61,5.44-69.84,3.27-33.41,8-66.6,18.57-98.63,5.91-18,13.76-35,26.19-49.6,4.95-5.84,10.51-10.39,18-12.32,11.57-3,23.12-6,34.7-8.89A27.1,27.1,0,0,1,879,968c6.94,24.68,26.33,36.12,47.59,44.94-1.5,1.83-3.67,3.36-4.06,5.26-.44,2.15.39,4.76,1.24,6.95,3.75,9.74,10.79,17.18,17.73,24.65,8.44,9.08,17,18,25.57,27,3.18,3.33,6.74,3.75,9.34,1.26s2.38-6-.79-9.4c-11-11.94-22.42-23.61-33.12-35.86-4.26-4.87-7.09-11-10.58-16.53Z"/><path class="cls-5" d="M932.81,1015.65c6.65,2.3,13.32,4.54,19.93,7a8.63,8.63,0,0,1,3,2.49q17,18.6,34,37.27c.52.57,1,1.13,1.82,2-25.5,25.64-53,48.87-82,71a118.23,118.23,0,0,0-12.47-36.65c-2.51-4.82-3.26-9.71-3.66-14.88-.39-5-.67-9.95-1.49-14.85a12.47,12.47,0,0,0-3.06-6c-2-2.17-4.77-2.37-7.28-.65s-2.9,4-2,6.77c.42,1.33.81,2.66,1.41,4.66a25.69,25.69,0,0,1-2.64-1.22c-6.26-4-12.93-4.34-19.77-2-7.33,2.5-11.06,9.13-9,16.58,1.2,4.3,3.39,8.32,5.1,12.38-4.86.29-9.95.15-14.89,1-11.81,1.94-21.17,8.2-28.31,17.68-5.57,7.41-4.05,13.69,4.12,18,2.51,1.33,5.08,2.17,6.13,5.46a4.4,4.4,0,0,0,5.88,2.51c7.47-3.08,15.1-1.87,22.6-.94q23,2.85,45.92,6.6a135.59,135.59,0,0,1,19.2,5.12c2.69.87,5,2.94,7.51,4.35A12.75,12.75,0,0,0,927,1161c6.68,1,13.36,1.86,20.07,2.52,3.54.35,5.47,1.36,5.65,5.48.42,9.24,1.39,18.45,2.12,27.6-7,1.11-7.56,1.83-8.59,8-6.94,41.82-29,72.86-66.59,92.58-23.66,12.42-49,19.07-75.59,21.15-7.35.57-13.4-2-18.51-6.55-4.23-3.78-7.25-8.9-11.42-12.77s-3.89-8.42-3.8-13c.5-26.11.67-52.25,1.93-78.33,1.13-23.32,3.17-46.61,5.44-69.84,3.27-33.41,8-66.6,18.57-98.63,5.91-18,13.76-35,26.19-49.6,4.95-5.84,10.51-10.39,18-12.32,11.57-3,23.12-6,34.7-8.89A27.1,27.1,0,0,1,879,968c6.94,24.68,26.33,36.12,47.59,44.94-1.5,1.83-3.67,3.36-4.06,5.26-.44,2.15.39,4.76,1.24,6.95,3.75,9.74,10.79,17.18,17.73,24.65,8.44,9.08,17,18,25.57,27,3.18,3.33,6.74,3.75,9.34,1.26s2.38-6-.79-9.4c-11-11.94-22.42-23.61-33.12-35.86-4.26-4.87-7.09-11-10.58-16.53Z"/><path class="cls-6" d="M847.48,982.1c-13.6,16-22.19,34.62-28.66,54.27-11.54,35.05-16.74,71.37-20.31,107.91-2.49,25.43-4.72,50.91-6,76.42-1.38,28.53-1.57,57.13-2.12,85.7-.06,3.22-.17,6.44.92,9.43a27.25,27.25,0,0,1-5.82-4c-4.23-3.78-7.26-8.9-11.43-12.77s-3.88-8.42-3.79-13c.5-26.11.67-52.25,1.93-78.33,1.12-23.32,3.16-46.61,5.44-69.84,3.26-33.41,8-66.6,18.57-98.63,5.91-18,13.76-35,26.18-49.6,5-5.84,10.51-10.39,18-12.32q8.58-2.19,17.15-4.41A47.38,47.38,0,0,0,847.48,982.1Z"/><path class="cls-5" d="M1042.08,1315.6c.66,6.12,1.35,12,1.93,18,1.06,10.89,2.33,21.78,3,32.7.35,5.89-.43,11.83-.58,17.76a7.78,7.78,0,0,0,.72,4.11c2.95,4.67,6.28,9.1,9.22,13.77,5,7.85,9.82,15.76,14.47,23.79a14.06,14.06,0,0,1,1.67,6.63c.33,32.66.94,65.32.61,98-.27,28-1.64,56-2.56,84-.14,4.2-.53,8.39-.65,12.6-.17,6-3.05,10.8-6.25,15.47a64.43,64.43,0,0,1-18.93,17.91c-2.21,1.42-4.1,3.33-6.34,4.68a4.62,4.62,0,0,1-3.51.11,109.7,109.7,0,0,1-39.29-24.84c-21.77-21.37-37-46.92-46.2-75.82-2-6.41-1.39-13.8-1.33-20.74.2-21,.71-42.06,1.1-63.09q.71-37.36,1.41-74.72c.08-4.2.33-8.4.53-12.6,0-.88-.07-2,.4-2.59,2.35-3,3.15-5.92,1.39-9.53-.29-.58,1.07-2.23,2-3.08,11.29-11,22.29-22.23,31-35.41,4.64-7,8.66-14.42,13.12-21.55.74-1.19,2.37-2.67,3.55-2.63a170.49,170.49,0,0,0,37.67-2.82A13.59,13.59,0,0,1,1042.08,1315.6Z"/><path class="cls-5" d="M1191.9,1139.28a25.68,25.68,0,0,0,12.44-12.14c4.44-9.05,1.67-17.48-7.6-21.4a41.63,41.63,0,0,0-13.12-3.2c-22.85-1.56-43.56,4.74-62.28,17.82l-4.31,3a14.31,14.31,0,0,1-.27-2.07c.8-14.14,1.55-28.28,2.51-42.41a96.3,96.3,0,0,1,1.81-10.74,5.4,5.4,0,0,0-2.55-6,5.63,5.63,0,0,0-6.82.49c-2.82,2.14-3.26,5.32-3.73,8.55-.94,6.34-1.7,12.74-3.18,19a39.52,39.52,0,0,1-11.42,19.94c-13.94,13.1-29.87,22.86-48.74,27.11-9.93,2.23-10.58,1.53-14.21-7.61-2.64-6.67-5.88-13.1-8.63-19.73-2.44-5.88-6.78-7.8-12.77-6.85-.74.11-1.49.15-1.69.65q10.49-11,21-22.06a4,4,0,0,1,2-1c22.56-4.66,42.43-15,61-28.28a12.46,12.46,0,0,1,6.35-2.22,187.13,187.13,0,0,0,43.16-7c4.81-1.34,10.6-.56,15.65.57,32.25,7.21,58.15,37.45,61.19,70.71,1.19,13,2.7,25.94,4.09,38.91a5.47,5.47,0,0,1-2.27,5.65c-1.44,1.12-2.36,3.78-2.35,5.75.14,26.12-5.79,50.93-15.85,74.86-8,19-21.93,32.17-40.54,40.59-14.13,6.39-28.72,10.9-44.45,11.11-20.81.28-37.32-8-50-24.3-6.58-8.45-12.47-17.29-13.77-28.31a65.5,65.5,0,0,1-.38-7.28c0-3.15-1-5.53-4.1-7a3.61,3.61,0,0,1-1.66-2.71c-.26-17.93-1.11-35.86,1.27-53.74.38-2.84,1.71-4,4.32-4.27,7-.84,14.07-1.59,21-2.71,1.89-.31,3.6-1.8,5.35-2.81,1.41-.81,2.65-2,4.14-2.52,14.47-5.06,29.42-8,44.57-10,5.15-.69,10.33-1.16,15.49-1.82a16.52,16.52,0,0,1,9.94,1.54,48.15,48.15,0,0,1,20.33,19.47,44.22,44.22,0,0,0,5.69,8.13,15,15,0,0,0,18.84,2.89,16.14,16.14,0,0,0,7.91-17.52c-1.44-6.69-5.49-11.74-10.32-16.29C1194.16,1141.26,1193.24,1140.48,1191.9,1139.28Z"/><path class="cls-5" d="M1007.67,1103.32l-.33.35A.66.66,0,0,1,1007.67,1103.32Z"/><path class="cls-5" d="M1156,1147.33c-13.53,5-35,13.1-42,17.4-10.43,6.45-36.83,18.77-49.15,33.43-5.9,7-10.39,18.89-13.48,29.34a6.51,6.51,0,0,0-3.31-3.08,3.61,3.61,0,0,1-1.66-2.71c-.26-17.93-1.11-35.86,1.27-53.74.37-2.84,1.7-4,4.32-4.27,7-.84,14.07-1.59,21-2.71,1.88-.31,3.6-1.8,5.35-2.81,1.4-.81,2.65-2,4.14-2.52,14.46-5.06,29.42-8,44.57-10,5.15-.69,10.33-1.16,15.49-1.82a16.53,16.53,0,0,1,9.94,1.54C1153.77,1146,1154.91,1146.65,1156,1147.33Z"/><path class="cls-5" d="M1007.67,1103.32l-.33.35A.66.66,0,0,1,1007.67,1103.32Z"/><path class="cls-5" d="M1059.75,1257.67a57.05,57.05,0,0,1-3.16-5.66A7.68,7.68,0,0,1,1059.75,1257.67Z"/><path class="cls-5" d="M1023.13,1112.67c3.23,7.76,7,15.3,10.13,23.1a37,37,0,0,1-2.83-6.17c-2.56-6.48-5.69-12.72-8.38-19.15A19.09,19.09,0,0,1,1023.13,1112.67Z"/><path class="cls-5" d="M1096.82,1050.17c-6.23,4-12.6,7.78-19.13,11.16,4.64-2.81,9.19-5.83,13.67-9A12.53,12.53,0,0,1,1096.82,1050.17Z"/><path class="cls-5" d="M1006,1104.78l-.37.39A.78.78,0,0,1,1006,1104.78Z"/><path class="cls-5" d="M1056.59,1252a9.07,9.07,0,0,0-1.68-1,4.41,4.41,0,0,1-2-3.28c0-2.59-.08-5.19-.14-7.78A42.34,42.34,0,0,0,1056.59,1252Z"/><path class="cls-5" d="M1077.69,1061.33c-14.64,8.89-30.23,15.72-47.35,19.26a4,4,0,0,0-2,1q-10.38,10.82-20.66,21.71a4.66,4.66,0,0,1,1.35-.3c6-1,10.33,1,12.78,6.85.08.19.16.39.25.58-3.07-5.36-7.92-7.07-14.34-6.06a5.2,5.2,0,0,0-1.67.39q12.48-13.12,25-26.24a4.92,4.92,0,0,1,2.43-1.24A171,171,0,0,0,1077.69,1061.33Z"/><path class="cls-5" d="M830.85,1372.35c5.69,5.63,10.74,10.85,16,15.82,13.88,13,28.92,24.45,46.43,32.24,6.4,2.84,13,5,20.17,5,2.59,0,2.43,1.55,2.39,3.3-.34,17.38-1,34.76-.92,52.14.17,30,.74,60,1.32,90,.27,13.72.93,27.43,1.51,41.15.34,8.07.81,16.14,1.34,24.2.15,2.36-.39,3.54-3,3.29-27.88-2.65-55.75-5.32-81.7-17.22-2.9-1.33-4.21-2.84-4.48-6.31-2.71-34.41-1.52-68.82-.77-103.25,1-45.28,1.19-90.57,1.72-135.85C830.87,1375.57,830.85,1374.29,830.85,1372.35Z"/><path class="cls-6" d="M852.56,1629.11a145.06,145.06,0,0,1-18.18-6.85c-2.9-1.33-4.21-2.84-4.48-6.31-2.72-34.41-1.52-68.82-.77-103.25,1-45.28,1.18-90.57,1.72-135.85,0-1.28,0-2.56,0-4.5,5.69,5.63,10.74,10.85,16,15.82q3.52,3.32,7.16,6.47c-.45,43.63-.74,87.26-1.68,130.89C851.61,1560.07,850.44,1594.59,852.56,1629.11Z"/><path class="cls-5" d="M1112.43,1647.41c.38-6.44.67-12.26,1.06-18.07,1.21-18.1,2.84-36.19,3.57-54.32s1.13-36.53.62-54.78c-.66-23.77-2.4-47.52-3.59-71.28-.61-12.16-1-24.33-1.6-36.48-.13-2.58.91-4,3-5.35,16-10.53,30.79-22.41,42.88-37.4,2.07-2.57,4-5.28,6.55-8.72.12,1.82.22,2.81.23,3.8.27,27.79.38,55.58.83,83.36.52,32.32,1.93,64.64,1.82,96.95-.07,20.55-2.22,41.09-3.35,61.63a6.71,6.71,0,0,0,1.11,4.16c3.23,4.13,2.11,9-3.07,10.32-4.46,1.17-9.18,1.27-13.74,2.13-7.18,1.34-14.3,3-21.47,4.35-2.09.41-2.61,1.56-2.59,3.49,0,4.09-.16,8.19-.07,12.29.05,2.28-.8,3.12-3.08,3.15C1118.77,1646.68,1116,1647.09,1112.43,1647.41Z"/><path class="cls-7" d="M994.52,1115.42c-.74,26.8-1.46,53.44-2.23,80.09-.38,13.16-1.09,26.31-1.24,39.47-.09,8,.67,15.91.87,23.87,0,1-.85,2.68-1.57,2.83-7.72,1.6-15.52,2.33-23.37.84-2.53-.48-3.87-1.31-3.5-4.6,2.74-24.69,2.71-49.48,2-74.26a37.74,37.74,0,0,1,2.69-15.62c5.24-13.25,9.78-26.78,14.72-40.16,1.18-3.21,3-6.19,4.14-9.39C988.41,1114.78,990.78,1114,994.52,1115.42Z"/><path class="cls-7" d="M965.53,1229.26c.13,10.85,0,21.7-.73,32.54-1.07-.63-1.56-1.73-1.32-3.88C964.54,1248.38,965.18,1238.83,965.53,1229.26Z"/><path class="cls-6" d="M994.52,1115.42q-.42,14.88-.82,29.7c-.69,1.1-1.41,2.18-2.11,3.27-1.06,1.68-1.74,3-1.93,3.33-3.18,5.77-8.84,13.38-13.47,23.16-.16.34-2.56,6.44-7.37,18.64l-3,7.57c-.05-5.81-.18-11.62-.34-17.43a37.89,37.89,0,0,1,2.68-15.62c5.25-13.25,9.79-26.78,14.72-40.16,1.19-3.21,3-6.19,4.15-9.39C988.41,1114.78,990.78,1114,994.52,1115.42Z"/><path class="cls-7" d="M965.53,1229.26c-.08-6.49-.27-13-.52-19.49a30.71,30.71,0,0,1,.83-8.68C966,1210.49,965.88,1219.88,965.53,1229.26Z"/><path class="cls-7" d="M1006.25,1115.47c4-1.68,6.12-.43,7.47,3.13,4.72,12.5,9.56,25,14.34,37.44,2.26,5.88,4.56,11.75,6.7,17.67a12.08,12.08,0,0,1,.61,4.51,552.41,552.41,0,0,0,1.93,80.23c.19,1.9-.06,3.09-2.2,3.64-8.39,2.16-16.7,1.23-25-.49-.63-.13-1.27-2.07-1.26-3.16.14-11.38.81-22.78.57-34.15-.5-23-1.52-46-2.22-69-.34-11.5-.43-23-.66-34.52C1006.53,1119,1006.36,1117.26,1006.25,1115.47Z"/><path class="cls-7" d="M1020.65,1136.76a101.66,101.66,0,0,0-8.13,21.16c-1.43,5.85-3.09,11.88-4.63,17.15q-.35-9.9-.66-19.79c-.35-11.5-.43-23-.66-34.52,0-1.75-.21-3.5-.32-5.29,4-1.68,6.12-.43,7.47,3.13Q1017.16,1127.69,1020.65,1136.76Z"/><path class="cls-5" d="M972.51,1681.9c0,.87-.1,2-.16,3-.09,1.73-.83,2.4-2.74,2.36-5.56-.12-7.63,2.72-6.1,8,1.13,3.93-2.4,3.74-4.37,4.86-2.15,1.21-2.81-.08-3.41-2-1.15-3.63-3.73-4.87-7.91-3.93-11.6,2.63-23.34,4.34-35.23,3.54-9.36-.62-18.67-2.07-28-3.24-4.5-.57-6.9.32-8.11,3.32-1.46,3.62.14,6.82,4.36,7.67a167.4,167.4,0,0,0,18.32,2.91c8.47.75,17,.9,25.63,1.31-.35.4-.83,1-1.37,1.54-7.15,7.1-14.24,14.24-21.51,21.2a6.53,6.53,0,0,1-4.57,1.75c-12.53-1.33-25-3-37.56-4.41-2.11-.25-2.42-1.35-2.28-3.17.69-8.82,1.35-17.66,1.9-26.49.12-2,.91-2.72,2.79-2.84,3.27-.22,6.42-.86,8.24-4.05a8.28,8.28,0,0,0,1.45-3.31c.17-4.27.07-8.55.07-13,3.6,1,6.79,2.3,10.1,2.87,15.28,2.62,30.44.88,45.56-1.63,5.12-.86,10.22-1.89,15.34-2.76a7.55,7.55,0,0,1,2.92.12C954.59,1677.62,963.29,1679.71,972.51,1681.9Z"/><path class="cls-5" d="M1073.28,1709.74c-5,5.39-11.17,11-16.16,17.59-4.64,6.09-9.56,8.88-17.34,7.27-5.69-1.18-11.67-1-17.49-1.6a3.53,3.53,0,0,1-2.54-2.16c-.85-8.23-1.62-16.46-2.08-24.72-.3-5.44,2.57-7.88,8.15-7.51,1.33.08,2.63.42,4,.46,4.41.13,7.46-2.42,7.55-6.2s-2.53-5.63-7.37-5.51c-.43,0-.87,0-1.66-.09l-.88-5.32c9.4-2.24,18.33-4.93,27.45-6.31,4.36-.66,9.09,1.35,13.68,1.85,11.86,1.28,23.72,2.67,35.61,3.49,7.39.5,14.81-.14,21.72-3.38a11.37,11.37,0,0,1,2.07-.51c1.15,5.76-1.76,11.81,2.39,17.75l-5.84,5c-1.68-6.4-6.18-5.77-11.07-4.81-20.12,4-40.23,4.16-60.27-.55a13.93,13.93,0,0,0-2.28-.45,5.8,5.8,0,0,0-6.63,5.07c-.52,2.8,1,5.34,4.32,6C1057.08,1706.89,1065.68,1708.34,1073.28,1709.74Z"/><path class="cls-5" d="M1041.61,1702.18c-2.16,3.1-6.13,3.42-7.39,7.93-.82,2.94-.57,15.39-.3,23.69-3.86-.33-7.78-.38-11.63-.8-.95-.1-2.46-1.33-2.54-2.16-.85-8.23-1.62-16.46-2.08-24.72-.3-5.44,2.57-7.88,8.15-7.51,1.32.08,2.63.42,4,.46,4.4.13,7.46-2.42,7.54-6.2s-2.52-5.63-7.36-5.51c-.43,0-.87,0-1.66-.09l-.88-5.32c3.36-.8,6.66-1.66,9.93-2.5C1039.54,1685.19,1044,1697.9,1041.61,1702.18Z"/><path class="cls-8" d="M991.36,1102.92c-1.32,0-2.64,0-4,0a7.74,7.74,0,0,0-7.16,4c-1.15,1.89-2.17,3.86-3.21,5.81-2,3.65-3.37,7.12-8,9.21s-8.21,6.92-12.39,10.36c-4.44,3.65-9.14,7-13.56,10.67-2.18,1.83-4,4.11-6.9,7.17-5.55.27-10.41-5.45-17.78-6.53,5.3-4.19,9.85-7.8,14.42-11.4a788.44,788.44,0,0,0,68.92-61.27,20.3,20.3,0,0,1,8.45-5.42,44.77,44.77,0,0,0,11.38-6c6.19-4.25,12.25-8.73,18-13.51,2.36-2,4.16-1.88,6.74-.56-.77.92-1.35,1.7-2,2.39q-20.57,21-41.17,41.92c-2.09,2.12-4.54,3.89-6.64,6-1.95,2-3.64,4.21-5.45,6.32Z"/><path class="cls-9" d="M977.88,1028.88c5.25,1.1,10.52,2.11,15.75,3.31a20.92,20.92,0,0,0,11.7-.47c2.14-.72,4.68-.17,7-.43,4-.44,8-1,12.06-1.64,1.27-.19,2.5-.62,3.75-.93l.62.85c-8.48,8.88-16.95,17.76-25.78,27l-25.71-26.81Z"/><path class="cls-7" d="M871.76,1658.18l39.5,1.22c1.07,4.88,6.73,5.09,10.82,8.24-4.14.54-8.28,1.3-12.44,1.57-5.85.36-11.73.6-17.58.41-2.87-.1-5.7-1.28-8.56-1.95a29.82,29.82,0,0,0-4.79-1c-6.23-.38-7.38-1.56-7.12-7.74A2.79,2.79,0,0,1,871.76,1658.18Z"/><path class="cls-7" d="M1077.9,1667.06c3.94-2.67,9.89-2.51,10.93-7.72l39.7-1.09a37.84,37.84,0,0,1-.09,5.25,3,3,0,0,1-1.81,1.83c-15.68,5.81-31.69,5.11-47.8,2.37C1078.55,1667.65,1078.31,1667.35,1077.9,1667.06Z"/><path class="cls-8" d="M951.09,1151.86l14-11,.58.33-4.95,13.93Z"/><path d="M1241.65,1263.85c-.55-25.88-1.88-51.77-3.59-77.6-1.42-21.51-3.65-43-5.88-64.4a438.48,438.48,0,0,0-12.72-70.64c-6.15-22.48-14.08-44.13-28.32-63.05-7.86-10.45-16.64-19.16-29.82-22.43-12.21-3-24.35-6.32-36.81-9.58,0-.42.06-1,.13-1.54H1113c-.75,3-1.53,6-2.39,9a47.66,47.66,0,0,1-21.13,28.34c-15.18,9.45-31.81,15.46-48.8,20.54-12.17,3.65-24.47,6.9-36.74,10.19a10.32,10.32,0,0,1-4.78-.11c-10.13-2.34-20.3-4.51-30.31-7.27-17.83-4.92-35.24-11-51.76-19.52-14.73-7.59-24.4-19.06-28.52-35.2-.5-2-1-3.95-1.44-5.94H875.44c.12.59.24,1.17.35,1.76a11.36,11.36,0,0,1-1.29.49c-12.32,3.13-24.66,6.18-37,9.39-9.65,2.53-17.15,8.11-23.6,15.75-15.64,18.52-24.84,40.19-31.44,63.1-11.77,40.85-16,82.94-19.25,125.1-2,25.93-3.26,51.94-4.42,77.93-.51,11.51-.73,23-.27,34.53.66,7.16,3.07,22.37,11.71,30.67h0a7.66,7.66,0,0,1,.66.59c13.3,13.68,27.72,25.75,45.84,32.69a3.83,3.83,0,0,1,1.92,2.78c.38,6,.75,11.95.7,17.92-.42,46.18-.58,92.37-1.51,138.54-.88,43.29-2.85,86.56,2.64,129.7a3.13,3.13,0,0,1-.84,2.19c-3.8,3.94-2.86,9,2.35,10.65,2.9.94,6.08,1,9.12,1.51,9.64,1.69,19.27,3.42,29.18,5.19v30.84a11.22,11.22,0,0,1-1.94-.14c-5.9-1.47-8.91.49-9.61,6.47-.42,3.62-.76,7.27-.93,10.91-.62,13.11-3.11,26.18-.39,39.37.77,3.73,1.93,6.88,5.56,8.39,4.56,1.91,9.12,4,13.9,5.2,15.06,3.65,30.43,5.25,45.89,6.27a289,289,0,0,0,53.66-1.94c5.91-.72,11.81-1.67,17.74-2.13,4.71-.36,6.79-1.7,7.1-6.44,1.06-16.2,1.74-32.42,3-48.6.5-6.34-2.51-9.91-7.35-12.83-4.08-2.47-4.23-3-2.18-7.91,9.67,0,19.41,0,29.14,0a2.87,2.87,0,0,1,2.17,1,4.63,4.63,0,0,1-2,6.43c-5.7,3-9.1,7.09-8.44,14.26,1.14,12.21,1.58,24.48,2.35,36.72.24,3.87.62,7.72.94,11.58s2.45,5.73,6.3,5.77c.88,0,1.77,0,2.65.07,16,1.49,32.07,3.56,48.16,4.37,19.49,1,38.92-1,58.07-4.73,7.82-1.5,15.42-4.41,22.93-7.18,2-.73,4.28-3.13,4.67-5.12,1.26-6.25,2.39-12.67,2.25-19-.22-10.38-1.56-20.73-2.27-31.1-.66-9.76-2.39-11.32-11.78-9.83,0-9.72,0-19.42.08-29.12,0-.51,1-1.32,1.71-1.47,7.43-1.62,14.87-3.23,22.34-4.64,4.55-.85,9.25-1,13.73-2.1s6.75-6.15,4.06-8.92-1.93-5.11-1.74-8.1c1.27-19.64,2.71-39.29,3.31-59,.44-14.49-.23-29-.55-43.51-.45-20.38-1.38-40.74-1.47-61.11-.19-39.53,0-79.06.2-118.59a3.79,3.79,0,0,1,2-2.77c16.14-6.22,29.31-16.53,41.41-28.36.33-.36.69-.72,1.08-1.07l2-2c9.63-10.51,12.45-29.19,13.23-37C1241.63,1273.29,1241.75,1268.57,1241.65,1263.85Zm-195.29-218.42c-.77.92-1.35,1.7-2,2.39q-20.57,21-41.17,41.92c-2.09,2.12-4.54,3.89-6.64,6-1.95,2-3.64,4.21-5.45,6.32.1.29.2.57.29.85-1.32,0-2.64,0-4,0a7.74,7.74,0,0,0-7.16,4c-1.15,1.89-2.17,3.86-3.21,5.81-2,3.65-3.37,7.12-8,9.21s-8.21,6.92-12.39,10.36c-4.44,3.65-9.14,7-13.56,10.67-2.18,1.83-4,4.11-6.9,7.17-5.55.27-10.41-5.45-17.78-6.53,5.3-4.19,9.85-7.8,14.42-11.4a788.44,788.44,0,0,0,68.92-61.27,20.3,20.3,0,0,1,8.45-5.42,44.77,44.77,0,0,0,11.38-6c6.19-4.25,12.25-8.73,18-13.51C1042,1044,1043.78,1044.11,1046.36,1045.43Zm-9.64,213c.19,1.9-.06,3.09-2.2,3.64-8.39,2.16-16.7,1.23-25-.49-.62-.13-1.26-2.07-1.25-3.16.14-11.38.81-22.78.57-34.15-.5-23-1.52-46-2.22-69-.34-11.5-.43-23-.66-34.52,0-1.75-.21-3.5-.32-5.29,4-1.68,6.12-.43,7.47,3.13,4.72,12.5,9.56,25,14.34,37.44,2.26,5.88,4.56,11.75,6.7,17.67a12.08,12.08,0,0,1,.61,4.51A552.41,552.41,0,0,0,1036.72,1258.45Zm-44.8.41c0,1-.85,2.68-1.57,2.83-7.72,1.6-15.52,2.33-23.37.84-2.53-.48-3.87-1.31-3.5-4.6,2.74-24.68,2.71-49.48,2-74.26a37.76,37.76,0,0,1,2.69-15.62c5.24-13.25,9.78-26.78,14.72-40.16,1.18-3.2,3-6.19,4.14-9.39,1.36-3.71,3.73-4.5,7.47-3.07-.74,26.8-1.46,53.45-2.23,80.09-.38,13.16-1.09,26.31-1.24,39.48C991,1243,991.72,1250.9,991.92,1258.86Zm-31.19-103.78-9.64-3.22,14-11,.58.33Zm14.3-126.2c5.25,1.1,10.52,2.11,15.75,3.31a20.92,20.92,0,0,0,11.7-.47c2.14-.72,4.68-.17,7-.43,4-.44,8-1,12.06-1.64,1.27-.19,2.5-.62,3.75-.93l.62.85c-8.47,8.88-17,17.76-25.78,27l-25.71-26.81C974.64,1029.49,974.84,1029.19,975,1028.88Zm-171,289.46c-7.35.57-13.4-2-18.51-6.55-4.23-3.78-7.25-8.9-11.42-12.77s-3.89-8.42-3.8-13c.5-26.11.67-52.25,1.93-78.33,1.13-23.32,3.17-46.61,5.44-69.84,3.27-33.41,8-66.6,18.57-98.63,5.91-18,13.76-35,26.19-49.6,4.95-5.84,10.51-10.39,18-12.32,11.57-3,23.12-6,34.7-8.89A27.1,27.1,0,0,1,879,968c6.94,24.68,26.33,36.12,47.59,44.94-1.5,1.83-3.67,3.36-4.06,5.26-.44,2.15.39,4.76,1.24,6.95,3.75,9.74,10.79,17.18,17.73,24.65,8.44,9.08,17,18,25.57,27,3.18,3.33,6.74,3.75,9.34,1.26s2.38-6-.79-9.4c-11-11.94-22.42-23.61-33.12-35.86-4.26-4.87-7.09-11-10.58-16.53l.85-.59c6.65,2.3,13.32,4.54,19.93,7a8.63,8.63,0,0,1,3,2.49q17,18.6,34,37.27c.52.57,1,1.13,1.82,2-25.5,25.64-53,48.87-82,71a118.23,118.23,0,0,0-12.47-36.65c-2.51-4.82-3.26-9.71-3.66-14.88-.39-5-.67-9.95-1.49-14.85a12.47,12.47,0,0,0-3.06-6c-2-2.17-4.77-2.37-7.28-.65s-2.9,4-2,6.77c.42,1.33.81,2.66,1.41,4.66a25.69,25.69,0,0,1-2.64-1.22c-6.26-4-12.93-4.34-19.77-2-7.33,2.5-11.06,9.13-9,16.58,1.2,4.3,3.39,8.32,5.1,12.38-4.86.29-9.95.15-14.89,1-11.81,1.94-21.17,8.2-28.31,17.68-5.57,7.41-4.05,13.69,4.12,18,2.51,1.33,5.08,2.17,6.13,5.46a4.4,4.4,0,0,0,5.88,2.51c7.47-3.08,15.1-1.87,22.6-.94q23,2.85,45.92,6.6a135.59,135.59,0,0,1,19.2,5.12c2.69.87,5,2.94,7.51,4.35A12.75,12.75,0,0,0,927,1161c6.68,1,13.36,1.86,20.07,2.52,3.54.35,5.47,1.36,5.65,5.48.42,9.24,1.39,18.45,2.12,27.6-7,1.11-7.56,1.83-8.59,8-6.94,41.82-29,72.86-66.59,92.58C856,1309.61,830.66,1316.26,804.05,1318.34Zm30.33,303.92c-2.9-1.33-4.21-2.84-4.48-6.31-2.71-34.41-1.52-68.82-.77-103.25,1-45.28,1.19-90.57,1.72-135.85,0-1.28,0-2.56,0-4.5,5.69,5.63,10.74,10.85,16,15.82,13.88,13,28.92,24.45,46.43,32.24,6.4,2.84,13,5,20.17,5,2.59,0,2.43,1.55,2.39,3.3-.34,17.38-1,34.76-.93,52.14.18,30,.75,60,1.33,90,.27,13.72.93,27.43,1.51,41.15.34,8.07.81,16.14,1.34,24.2.15,2.36-.39,3.54-3,3.29C888.2,1636.83,860.33,1634.16,834.38,1622.26Zm87.7,45.38c-4.14.54-8.28,1.3-12.44,1.57-5.85.36-11.73.6-17.58.41-2.87-.1-5.7-1.28-8.56-1.95a29.82,29.82,0,0,0-4.79-1c-6.23-.38-7.38-1.56-7.12-7.74a2.79,2.79,0,0,1,.17-.74l39.5,1.22C912.33,1664.28,918,1664.49,922.08,1667.64ZM972.35,1685c-.09,1.73-.83,2.4-2.74,2.36-5.56-.12-7.63,2.72-6.1,8,1.13,3.93-2.4,3.74-4.37,4.86-2.15,1.21-2.81-.08-3.41-2-1.15-3.63-3.73-4.87-7.91-3.93-11.6,2.63-23.34,4.34-35.23,3.54-9.36-.62-18.67-2.07-28-3.24-4.5-.57-6.9.32-8.11,3.32-1.46,3.62.15,6.82,4.36,7.67a167.4,167.4,0,0,0,18.32,2.91c8.47.75,17,.9,25.63,1.31-.35.4-.83,1-1.37,1.54-7.15,7.1-14.24,14.24-21.51,21.2a6.53,6.53,0,0,1-4.57,1.75c-12.53-1.33-25-3-37.56-4.41-2.11-.25-2.42-1.35-2.28-3.17.69-8.82,1.35-17.66,1.9-26.49.12-2,.91-2.72,2.79-2.84,3.27-.22,6.42-.86,8.24-4.05a8.14,8.14,0,0,0,1.45-3.31c.17-4.27.07-8.55.07-13,3.6,1,6.79,2.31,10.1,2.87,15.28,2.62,30.44.88,45.56-1.63,5.12-.86,10.22-1.89,15.34-2.76a7.55,7.55,0,0,1,2.92.12c8.71,2,17.41,4.11,26.63,6.3C972.47,1682.78,972.41,1683.86,972.35,1685Zm23.23-44.76c-21.77-21.37-37-46.92-46.2-75.82-2-6.41-1.39-13.8-1.33-20.74.2-21,.71-42.06,1.1-63.09q.71-37.36,1.41-74.72c.08-4.2.33-8.4.53-12.6,0-.88-.07-2,.4-2.59,2.35-3,3.15-5.92,1.39-9.53-.29-.58,1.07-2.23,2-3.08,11.29-11,22.29-22.23,31-35.41,4.64-7,8.66-14.42,13.12-21.55.74-1.19,2.37-2.67,3.55-2.63a170.49,170.49,0,0,0,37.67-2.82,13.59,13.59,0,0,1,1.89,0c.66,6.12,1.35,12,1.93,18,1.06,10.89,2.33,21.78,3,32.7.35,5.89-.43,11.83-.58,17.76a7.78,7.78,0,0,0,.72,4.11c2.95,4.67,6.28,9.1,9.22,13.77,5,7.85,9.82,15.76,14.47,23.79a14.06,14.06,0,0,1,1.67,6.63c.33,32.66.94,65.32.61,98-.27,28-1.64,56-2.56,84-.14,4.2-.53,8.39-.65,12.6-.17,6-3.05,10.8-6.25,15.47a64.43,64.43,0,0,1-18.93,17.91c-2.21,1.42-4.1,3.33-6.34,4.68a4.62,4.62,0,0,1-3.51.11A109.7,109.7,0,0,1,995.58,1640.19Zm128.91,59.61c-1.68-6.4-6.18-5.77-11.07-4.81-20.12,4-40.23,4.16-60.27-.55a13.93,13.93,0,0,0-2.28-.45,5.8,5.8,0,0,0-6.63,5.07c-.52,2.8,1,5.34,4.32,6,8.52,1.78,17.12,3.23,24.72,4.63-5,5.39-11.17,11-16.16,17.59-4.64,6.09-9.56,8.88-17.34,7.27-5.69-1.18-11.67-1-17.49-1.6a3.53,3.53,0,0,1-2.54-2.16c-.85-8.23-1.62-16.46-2.08-24.72-.3-5.44,2.57-7.88,8.15-7.51,1.33.08,2.63.42,4,.46,4.41.13,7.46-2.42,7.55-6.2s-2.53-5.63-7.37-5.51c-.43,0-.87,0-1.66-.09l-.88-5.32c9.4-2.24,18.33-4.93,27.45-6.31,4.36-.66,9.09,1.35,13.68,1.85,11.86,1.28,23.72,2.67,35.61,3.49,7.39.5,14.81-.14,21.72-3.38a11.37,11.37,0,0,1,2.07-.51c1.15,5.76-1.76,11.81,2.39,17.75Zm-46.59-32.74c3.94-2.67,9.89-2.51,10.93-7.72l39.7-1.09a37.84,37.84,0,0,1-.09,5.25,3,3,0,0,1-1.81,1.83c-15.68,5.81-31.69,5.11-47.8,2.37C1078.55,1667.65,1078.31,1667.35,1077.9,1667.06Zm87.63-56.15c3.23,4.13,2.11,9-3.07,10.32-4.46,1.17-9.18,1.27-13.74,2.13-7.18,1.34-14.3,3-21.47,4.35-2.09.41-2.61,1.56-2.59,3.49,0,4.09-.16,8.19-.07,12.29.05,2.28-.8,3.12-3.08,3.15-2.74,0-5.48.45-9.08.77.38-6.44.67-12.26,1.06-18.07,1.21-18.1,2.84-36.19,3.57-54.32s1.13-36.53.62-54.78c-.66-23.77-2.4-47.52-3.59-71.28-.61-12.16-1-24.33-1.6-36.48-.13-2.58.91-4,3-5.35,16-10.53,30.79-22.41,42.88-37.4,2.07-2.57,4-5.28,6.55-8.72.12,1.82.22,2.81.23,3.8.27,27.79.38,55.58.83,83.36.52,32.32,1.93,64.64,1.82,96.95-.07,20.55-2.22,41.09-3.35,61.63A6.71,6.71,0,0,0,1165.53,1610.91ZM1219.38,1159c-1.44,1.11-2.37,3.77-2.36,5.74.15,26.12-5.79,50.93-15.84,74.86-8,19-21.93,32.17-40.54,40.59-14.14,6.39-28.72,10.9-44.46,11.11-20.8.28-37.31-8-50-24.3-6.58-8.45-12.46-17.29-13.77-28.31a65.49,65.49,0,0,1-.37-7.28c0-3.15-1-5.53-4.1-7a3.61,3.61,0,0,1-1.66-2.71l0-1.42c-.27-17.45-1-34.92,1.3-52.32.37-2.84,1.7-4,4.32-4.27,7-.84,14.07-1.59,21-2.71,1.88-.31,3.6-1.8,5.35-2.81,1.4-.81,2.65-2,4.14-2.52,14.46-5.06,29.42-8,44.57-10,5.15-.69,10.33-1.16,15.49-1.82a16.53,16.53,0,0,1,9.94,1.54,48.15,48.15,0,0,1,20.33,19.47,43.74,43.74,0,0,0,5.69,8.13,15,15,0,0,0,18.84,2.89,16.14,16.14,0,0,0,7.91-17.52c-1.44-6.69-5.5-11.74-10.32-16.29-.88-.83-1.79-1.61-3.14-2.81a25.6,25.6,0,0,0,12.44-12.14c4.45-9.05,1.68-17.48-7.59-21.4a41.63,41.63,0,0,0-13.12-3.2c-22.85-1.56-43.57,4.74-62.28,17.82l-4.31,3a13.34,13.34,0,0,1-.28-2.07c.81-14.14,1.55-28.28,2.51-42.41a98.7,98.7,0,0,1,1.82-10.74,5.42,5.42,0,0,0-2.55-6,5.63,5.63,0,0,0-6.82.49c-2.82,2.14-3.26,5.32-3.73,8.55-.94,6.34-1.7,12.74-3.18,19a39.52,39.52,0,0,1-11.42,19.94c-14,13.1-29.88,22.86-48.74,27.11-9.93,2.23-10.59,1.53-14.21-7.61-1.35-3.39-2.84-6.72-4.35-10s-2.93-6.42-4.28-9.68c-2.45-5.88-6.78-7.8-12.78-6.85a4.17,4.17,0,0,0-1.38.33q10.34-10.89,20.69-21.74a4,4,0,0,1,2-1c22.55-4.66,42.43-15,61-28.28a12.43,12.43,0,0,1,6.35-2.22,187.65,187.65,0,0,0,43.16-7c4.81-1.35,10.6-.57,15.65.56,32.24,7.21,58.15,37.45,61.19,70.71,1.18,13,2.7,25.94,4.09,38.91A5.49,5.49,0,0,1,1219.38,1159Z"/><path class="cls-7" d="M1068.08,924.81c-12.79,15.17-24,29.45-32.6,39.67a38.71,38.71,0,0,0-5.64,40.87c1.43,3.14,3,6.3,4.51,9.37,1,0,2,0,3.06,0a189.27,189.27,0,0,0,76.64-16.1c-12.79-16.8-26.56-41.41-38.17-70.46C1074.47,924.73,1070.75,921.61,1068.08,924.81Z"/><path class="cls-7" d="M1114.05,998.66a189.31,189.31,0,0,1-76.64,16.1c-1,0-2,0-3.06,0-1.57-3.07-3.09-6.23-4.52-9.37a38.73,38.73,0,0,1,5.64-40.87c8.58-10.22,19.82-24.5,32.61-39.67,2.67-3.2,6.39-.08,7.8,3.39,4.3,10.76,8.9,20.91,13.63,30.28A264.1,264.1,0,0,0,1114.05,998.66Z"/><path class="cls-7" d="M944.88,895c-11-.38-24.66,1-36.35,6.49-7.42,3.52-8.65,33.89,1.92,32.68s5.85-21.07,21.62-21.77c14.71-.64,10.15,25.4,30.18,24.19s20.76-14.42,13.86-29.15C970.28,895,957.87,895.45,944.88,895Z"/><path class="cls-6" d="M924.6,896.44c-1.74.64-3.45,1.37-5.13,2.16-6.53,3.09-9,23.64-4.79,33.53a6.9,6.9,0,0,1-4.23,2c-10.58,1.21-9.34-29.16-1.92-32.68A65.1,65.1,0,0,1,924.6,896.44Z"/><path class="cls-7" d="M1008.37,668.18c-48.76-1.53-70.8,19.4-75.73,26.66-1.95,2.84-2.93,5.44.5,5.25,15.79-.91,17.86-1.37,17.26,3.2s-6.69,5.65-21,6.59a5,5,0,0,0-4.7,4.74v.11c-.16,3.1,2.41,3.14,5.51,3.14,24.28-.22,45.7-3,41.39,3.26s-20.37,7.65-41.56,7.91l-.37,0a5.05,5.05,0,0,0-4.6,5.47c0,.24.07.48.07.72a3.19,3.19,0,0,0,3.07,2.89c39.68,1.28,76.61-8.12,70,1.58-6.32,9.25-46.16,9.2-65,9.2-10.45,0-11.81,11.2-12.21,24.93a87.54,87.54,0,0,0,.6,12.74,48.2,48.2,0,0,1,.05,12.31c-1.23,7.4-4.8,21.84-7.57,29-5.58,14.38-10.19,19.81-7.58,35a9,9,0,0,0,9.55,7.45c6.68-.48,21.48-1.39,33.15-.59a16.19,16.19,0,0,0,4.68-.76c5.77-2,5.57-10.23-.23-12.14-6.31-2.06-16.26-5.77-15.87-8.58,1.32-9.47,48.52-8.78,58.42,40.7,2,8.63,9.37,35.09,12.47,49.64.78,3.63,4.62,6.9,8,5.29,27.81-13.46,48.54-56.5,56.41-93.22,3.3-15.42-8.73-22.19-15-31.32-2.8-4.05-2-11.21-1.1-17.33,3.81-27.84,5.38-35.66,32-51.49a6,6,0,0,0,2.86-6.14C1089.26,730,1091.9,670.84,1008.37,668.18Zm-9.16,146.25c-17.7,2.86-33.57-.47-43.6-2.3-1.77-.32-1.38-2.91.15-3.83,20.52-12.37,37.39-3.76,43.66,2.39C1000.64,811.87,1000.89,814.16,999.21,814.43ZM1012,798.66c-14.43-5.41-32.21-6.06-48.8-6.4s-16.08-11-16.08-11S943,768.15,968.37,768s40,9.14,47.42,15.86S1026.42,804.06,1012,798.66Z"/><path class="cls-10" d="M1091.82,744.37c-1.39-7.82-1.25-28.9-14.29-46.93-10.91-15.1-31.08-28.05-69.16-29.26-48.77-1.53-70.8,19.4-75.73,26.66-1.95,2.84-2.94,5.44.5,5.25,15.79-.91,17.86-1.37,17.26,3.2s-6.69,5.65-21,6.59a5,5,0,0,0-4.71,4.74v.11c-.16,3.1,2.41,3.14,5.52,3.14,24.28-.22,45.69-3,41.38,3.26s-20.36,7.65-41.55,7.91l-.37,0a5.06,5.06,0,0,0-4.61,5.47,5.85,5.85,0,0,1,.07.72,3.2,3.2,0,0,0,3.08,2.89c39.68,1.28,76.61-8.12,70,1.58-6.31,9.25-46.15,9.2-65,9.2-10.45,0-11.81,11.2-12.21,24.93a87.54,87.54,0,0,0,.6,12.74,48.2,48.2,0,0,1,.05,12.31c-1.24,7.4-4.8,21.84-7.57,29-5.58,14.38-10.19,19.81-7.58,35a9,9,0,0,0,9.55,7.45c6.68-.48,21.48-1.39,33.14-.59a16.14,16.14,0,0,0,4.68-.76c5.78-2,5.58-10.23-.22-12.14-6.31-2.06-16.26-5.77-15.87-8.58,1.32-9.47,48.52-8.78,58.42,40.7,1.92,8.33,8.86,33.24,12.13,48,.12.55.23,1.08.34,1.59.78,3.63,4.62,6.9,8,5.29,27.81-13.46,48.54-56.5,56.41-93.22,3.29-15.42-8.73-22.19-15-31.32-2.8-4.05-2-11.21-1.1-17.33,3.81-27.84,5.38-35.66,32-51.49A6,6,0,0,0,1091.82,744.37Zm-92.61,70.06c-17.7,2.86-33.57-.47-43.6-2.3-1.77-.32-1.38-2.91.15-3.83,20.52-12.37,37.38-3.76,43.66,2.39C1000.64,811.87,1000.89,814.16,999.21,814.43Zm-36-22.17c-16.6-.33-16.08-11-16.08-11S943,768.15,968.36,768s40,9.14,47.43,15.86,10.63,20.17-3.8,14.77S979.78,792.6,963.19,792.26Z"/><path class="cls-10" d="M1091.82,744.37c-1.1-6.16-1.24-20.56-7.64-35.21-10.31,13.16-27.58,36.44-30,47.67-3.41,16.17-3.94,43.58-2.65,85.39,1,31.95-28,78.71-41.74,99,1.58,2.35,4.34,3.86,6.84,2.66,27.81-13.46,48.54-56.5,56.41-93.22,3.29-15.42-8.73-22.19-15-31.32-2.8-4.05-2-11.21-1.1-17.33,3.81-27.84,5.38-35.66,32-51.49A6,6,0,0,0,1091.82,744.37Z"/><path class="cls-11" d="M1015.79,783.89c-7.38-6.72-22-16-47.42-15.86s-21.26,13.22-21.26,13.22-.51,10.68,16.08,11,34.37,1,48.8,6.4S1023.18,790.6,1015.79,783.89Z"/><path class="cls-11" d="M955.76,808.3c-1.53.92-1.92,3.51-.15,3.83,10,1.83,25.9,5.16,43.6,2.3,1.68-.27,1.43-2.56.21-3.74C993.15,804.54,976.28,795.93,955.76,808.3Z"/><path class="cls-11" d="M872.43,919.09q-.36,3.28-1,6.88c-10.72,62.39,37.1,138.2,49,149.51a2.19,2.19,0,0,0,3.72-1.7c-1.86-13.93.86-33.25.86-33.25,24,51.36,91,41.83,112,37.43a2.21,2.21,0,0,0,1.71-2.61,2.16,2.16,0,0,0-1.13-1.5c-21.2-11.26-26-34.14-26-34.14,21.09,10,34.61,8.32,41.12,6.17a2.19,2.19,0,0,0,.48-4c-5.11-3.22-12.38-14.51-18.85-27.21A190,190,0,0,1,872.43,919.09Z"/><path class="cls-11" d="M1161.46,979.59a2.22,2.22,0,0,0-.81,1.08c-10.33,30.69-18.78,23.17-22.68,16.57a27.94,27.94,0,0,1-3-7.46c-.14-.57-.27-1.14-.4-1.71a189.13,189.13,0,0,1-20.51,10.59c7.79,10.24,15.22,17.59,21.56,21.27,12.15,7.5,25.45,8.85,31.43,4.13,16.48-13,3.42-35.42-2.55-43.94A2.17,2.17,0,0,0,1161.46,979.59Z"/><path class="cls-11" d="M1134.13,914.46c5.36,16.69,19.43,21.64,26.63,23.08a2.19,2.19,0,0,0,2.38-3.19c-27.6-54.1-11.28-77-11.28-77,4.75,5.28,12.58,5.75,17.52,5.48a2.21,2.21,0,0,0,1.52-3.68c-20-22.09-21.53-29.58-22.31-67-.43-20.73-7.71-31.63-14.48-37.3a56.68,56.68,0,0,1-17.31-24.3c-27-75.86-77.49-85.88-124.36-83-58.18,3.53-89.15,48.06-103.86,70.24-15.55,23.46-27.67,58.14-26.85,68.75s10.61,8.95,10.61,21.22-19,22.48-11.51,57c3.07,14.14,14.82,25,11.6,54.42a190,190,0,0,0,161.92,95.63c-1.56-3.07-3.08-6.23-4.51-9.37a38.71,38.71,0,0,1,5.64-40.87c8.57-10.22,19.81-24.5,32.6-39.67,2.67-3.2,6.39-.08,7.8,3.39,11.61,29,25.38,53.66,38.17,70.46a189.13,189.13,0,0,0,20.51-10.59C1125.38,949.54,1134.13,914.46,1134.13,914.46ZM962.25,936.59c-20,1.21-15.47-24.83-30.18-24.19-15.77.7-11.05,20.56-21.62,21.77s-9.34-29.16-1.92-32.68c11.69-5.54,25.39-6.87,36.35-6.49,13,.45,25.4,0,31.23,12.44C983,922.17,982.28,935.41,962.25,936.59ZM1089,750.51c-26.64,15.83-28.21,23.65-32,51.49-.85,6.12-1.7,13.28,1.1,17.33,6.32,9.13,18.35,15.9,15,31.32-7.87,36.72-28.6,79.76-56.41,93.22-3.35,1.61-7.19-1.66-8-5.29-3.1-14.55-10.47-41-12.47-49.64-9.9-49.48-57.1-50.17-58.42-40.7-.39,2.81,9.56,6.52,15.87,8.58,5.8,1.91,6,10.19.23,12.14a16.19,16.19,0,0,1-4.68.76c-11.67-.8-26.47.11-33.15.59a9,9,0,0,1-9.55-7.45c-2.61-15.15,2-20.58,7.58-35,2.77-7.16,6.34-21.6,7.57-29a48.2,48.2,0,0,0-.05-12.31,87.54,87.54,0,0,1-.6-12.74c.4-13.73,1.76-24.93,12.21-24.93,18.83,0,58.67.05,65-9.2,6.61-9.7-30.32-.3-70-1.58a3.19,3.19,0,0,1-3.07-2.89c0-.24,0-.48-.07-.72a5.05,5.05,0,0,1,4.6-5.47l.37,0c21.19-.26,37.32-1.73,41.56-7.91s-17.11-3.48-41.39-3.26c-3.1,0-5.67,0-5.51-3.14v-.11a5,5,0,0,1,4.7-4.74c14.28-.94,20.37-2,21-6.59s-1.47-4.11-17.26-3.2c-3.43.19-2.45-2.41-.5-5.25,4.93-7.26,27-28.19,75.73-26.66,83.53,2.66,80.89,61.82,83.45,76.19A6,6,0,0,1,1089,750.51Z"/><path class="cls-6" d="M934.79,748.92c-2.65,20-3.18,32.86-1.8,39.61,2,9.76-6.67,35.1-10,53.1-1.67,9-1.66,19.82-1.24,28.31-2.22.13-4.15.26-5.66.37a9,9,0,0,1-9.55-7.45c-2.61-15.15,2-20.58,7.58-35,2.77-7.16,6.33-21.6,7.57-29a48.2,48.2,0,0,0-.05-12.31,87.54,87.54,0,0,1-.6-12.74c.4-13.73,1.76-24.93,12.21-24.93Z"/><path class="cls-6" d="M930.07,729c2.65,0,5.22-.08,7.69-.16q-.79,4.89-1.46,9.38c-2.67,0-5.36,0-8.06-.12a3.2,3.2,0,0,1-3.08-2.89,5.85,5.85,0,0,0-.07-.72,5.06,5.06,0,0,1,4.61-5.47Z"/><path class="cls-6" d="M929.43,709.88A124.66,124.66,0,0,0,942,708.61a55.84,55.84,0,0,0-2.36,9.06c-3,.1-6.19.17-9.38.2s-5.68,0-5.52-3.14v-.11A5,5,0,0,1,929.43,709.88Z"/><path class="cls-6" d="M966.1,673.43c-7.52,7.26-15,16.09-20.17,26.08-2.64-.06-6.69.23-12.79.58-3.44.19-2.45-2.41-.5-5.25C935.82,690.16,946.11,679.79,966.1,673.43Z"/><path class="cls-12" d="M1089.51,958.48a69.39,69.39,0,0,1-62,40.32,38.77,38.77,0,0,1,7.92-34.32c8.58-10.22,19.82-24.5,32.61-39.67,2.67-3.2,6.39-.08,7.8,3.39C1080.18,939,1084.78,949.11,1089.51,958.48Z"/><path class="cls-12" d="M1089,750.51c-26.64,15.83-28.21,23.65-32,51.49-.85,6.12-1.7,13.28,1.1,17.33,6.32,9.13,18.34,15.9,15,31.32-7.87,36.72-28.6,79.76-56.41,93.22-2.5,1.2-5.26-.31-6.84-2.66,13.73-20.28,42.73-67,41.74-99-1.29-41.81-.76-69.22,2.65-85.39,2.37-11.23,19.64-34.51,30-47.67,6.4,14.65,6.54,29.05,7.64,35.21A6,6,0,0,1,1089,750.51Z"/><path class="cls-6" d="M1156,1147.33c-13.53,5-35,13.1-42,17.4-10.43,6.45-36.83,18.77-49.15,33.43-5.9,7-10.39,18.89-13.48,29.34a6.51,6.51,0,0,0-3.31-3.08,3.61,3.61,0,0,1-1.66-2.71c-.26-17.93-1.11-35.86,1.27-53.74.37-2.84,1.7-4,4.32-4.27,7-.84,14.07-1.59,21-2.71,1.88-.31,3.6-1.8,5.35-2.81,1.4-.81,2.65-2,4.14-2.52,14.46-5.06,29.42-8,44.57-10,5.15-.69,10.33-1.16,15.49-1.82a16.53,16.53,0,0,1,9.94,1.54C1153.77,1146,1154.91,1146.65,1156,1147.33Z"/><path class="cls-6" d="M1020.65,1136.76a101.66,101.66,0,0,0-8.13,21.16c-1.43,5.85-3.09,11.88-4.63,17.15q-.35-9.9-.66-19.79c-.35-11.5-.43-23-.66-34.52,0-1.75-.21-3.5-.32-5.29,4-1.68,6.12-.43,7.47,3.13Q1017.16,1127.69,1020.65,1136.76Z"/><path class="cls-6" d="M883.82,1680.14c-.42,3.12-.39,7.91-1,10.71a16.75,16.75,0,0,1-1.34,3.61c-2.58.16-4.14,1.22-5,3.45a6.33,6.33,0,0,0-.48,3.21h0l-3.68,30.25q-6.27-.77-12.54-1.5c-2.11-.25-2.42-1.35-2.28-3.17.69-8.82,1.35-17.66,1.89-26.49.12-2,.92-2.72,2.8-2.84,3.27-.22,6.42-.86,8.24-4.05a8.28,8.28,0,0,0,1.45-3.31c.17-4.27.07-8.55.07-13,3.59,1,6.79,2.3,10.1,2.87C883.08,1680.05,880.76,1679.68,883.82,1680.14Z"/><path class="cls-6" d="M1041.61,1702.18c-2.16,3.1-6.13,3.42-7.39,7.93-.82,2.94-.57,15.39-.3,23.69-3.86-.33-7.78-.38-11.63-.8-.95-.1-2.46-1.33-2.54-2.16-.85-8.23-1.62-16.46-2.08-24.72-.3-5.44,2.57-7.88,8.15-7.51,1.32.08,2.63.42,4,.46,4.4.13,7.46-2.42,7.54-6.2s-2.52-5.63-7.36-5.51c-.43,0-.87,0-1.66-.09l-.88-5.32c3.36-.8,11.6-2.89,14.87-3.73C1044.48,1684,1044,1697.9,1041.61,1702.18Z"/><rect class="cls-4" x="646.09" y="312.02" width="80.6" height="270.31" transform="translate(-125.31 336.55) rotate(-25.32)"/><path class="cls-4" d="M618.79,351.77l36.7-17.37L754,542.58l-36.7,17.36Z"/><polygon class="cls-4" points="711.16 287.24 864.98 249.69 896.36 520.26 807.99 541.84 711.16 287.24"/><path class="cls-4" d="M737.9,301.3l45.9-11.21L838.68,466.2l1.7-.42L807.26,284.36l40.46-9.87L874.46,505l-54.06,13.2Z"/><path class="cls-4" d="M938.66,519.05c-24.7,0-42.88-11.73-54-34.85-9.46-19.64-15.28-50-18.89-98.51-3.7-49.75-2.07-80,5.43-101,8.81-24.74,27-38.3,54-40.3,2.23-.17,4.42-.25,6.51-.25,24.81,0,43.13,11.9,54.46,35.38,9.43,19.54,15.19,49.11,18.67,95.87,3.85,51.77,2.24,82.88-5.38,104-8.83,24.5-26.45,37.4-53.85,39.44C943.18,519,940.86,519.05,938.66,519.05Z"/><path class="cls-4" d="M885.7,384.2C879,293.81,890.32,267,926.62,264.29s51.48,22.14,58.2,112.54c7.09,95.29-4.81,119.34-40.76,122S892.78,479.49,885.7,384.2Zm58.63-4.36c-5.29-71.2-8.28-78.35-14.91-77.85s-8.53,8-3.24,79.2c5.56,74.7,8.44,80.45,15.07,79.95S949.89,454.54,944.33,379.84Z"/><polygon class="cls-4" points="987.42 513.35 1000.18 321.27 976.79 319.72 981.95 242.09 1109.16 250.55 1104.01 328.18 1080.61 326.62 1067.84 518.7 987.42 513.35"/><path class="cls-4" d="M1021.47,302.64l-23.4-1.55,2.51-37.72,87.3,5.81-2.5,37.71-23.4-1.55-12.77,192.07-40.51-2.69Z"/><polygon class="cls-4" points="1047.67 515.21 1099.66 249.96 1209.32 271.46 1194.36 347.8 1163.79 341.81 1159.5 363.69 1184.92 368.68 1171.7 436.09 1146.29 431.11 1141.73 454.37 1174.36 460.76 1159.39 537.11 1047.67 515.21"/><path class="cls-4" d="M1115.44,273.44l70.41,13.8-7.27,37.09-30.57-6-12,61.13,25.41,5-5.52,28.16-25.41-5-12.26,62.51,32.63,6.39-7.27,37.1-72.47-14.21Z"/><path class="cls-4" d="M1208.32,552.76c-9.08,0-18.72-2-31.28-6.47l-61-21.78,90.83-254.58,58.39,20.83c14.37,5.13,24.71,11.08,32.54,18.75,9.25,9.06,14.86,20.6,16.66,34.32,2.88,21.78-3,49.76-20.82,99.81-14.3,40.1-25.13,64-36.2,80C1243.8,543.23,1227.74,552.76,1208.32,552.76Z"/><path class="cls-4" d="M1219,295.48l39.55,14.12c43.52,15.52,47.32,40.29,16.27,127.32-33.76,94.61-50.47,105-91,90.53l-42.2-15.06Zm-21.18,196.84c11.54,4.11,14.17-.15,38.76-69.05,23.28-65.27,23.78-72.9,12.24-77l-4.29-1.53-52,145.7Z"/><polygon class="cls-4" points="1216.67 560.45 1256.68 482.52 1266.06 487.33 1311.58 377.13 1342.99 315.95 1407.84 349.25 1376.44 410.4 1313.72 511.81 1322.78 516.45 1282.76 594.38 1216.67 560.45"/><path class="cls-4" d="M1265.34,509.44l30.51,15.67-21.74,42.35-30.52-15.67Zm64.41-123.91,21.9-42.65,29.27,15L1359,400.56l-60.21,97.35L1286,491.35Z"/><path d="M618.94,354.59l36.7-17.37,98.5,208.18-36.7,17.37Z"/><path d="M738.05,304.12,784,292.91,838.83,469l1.7-.41L807.41,287.19l40.46-9.88,26.74,230.53L820.55,521Z"/><path d="M885.84,387c-6.72-90.4,4.62-117.22,40.92-119.92S978.25,289.26,985,379.66c7.08,95.28-4.81,119.33-40.76,122S892.93,482.31,885.84,387Zm58.64-4.36c-5.29-71.21-8.28-78.35-14.91-77.86s-8.53,8-3.24,79.21c5.56,74.69,8.44,80.44,15.07,80S950,457.36,944.48,382.67Z"/><path d="M1021.61,305.47l-23.39-1.56,2.5-37.71L1088,272l-2.51,37.71-23.39-1.55-12.77,192.07-40.51-2.69Z"/><path d="M1115.59,276.26l70.41,13.8-7.27,37.09-30.57-6-12,61.14,25.42,5-5.52,28.16-25.42-5L1118.4,473l32.63,6.4-7.27,37.09-72.47-14.2Z"/><path d="M1219.1,298.31l39.56,14.11c43.51,15.52,47.31,40.29,16.26,127.32-33.75,94.61-50.47,105-91,90.53l-42.2-15Zm-21.17,196.83c11.54,4.12,14.17-.15,38.75-69,23.29-65.27,23.78-72.9,12.25-77l-4.29-1.53-52,145.71Z"/><path d="M1265.48,512.27,1296,527.93l-21.75,42.35-30.51-15.67Zm64.41-123.91,21.9-42.66,29.27,15-21.9,42.65L1299,500.73l-12.77-6.56Z"/></svg>